<svg width="69" height="60" viewBox="0 0 69 60" fill="none" xmlns="http://www.w3.org/2000/svg">
<g clip-path="url(#clip0_498_327)">
<path d="M1.10089 34.4037C1.10089 16.0111 16.011 1.10092 34.4036 1.10092C52.7962 1.10092 67.7064 16.0111 67.7064 34.4037V61.1009H1.10089V34.4037Z" fill="#00A384"/>
<path d="M44.8624 62.2018C56.6928 56.141 61.7969 50.5563 67.7064 36.0551V62.2018H44.8624Z" fill="#03866D"/>
<path d="M40.7339 24.7707C40.7339 22.3386 42.7055 20.367 45.1376 20.367H53.3944C55.8265 20.367 57.7981 22.3386 57.7981 24.7707V29.8028C57.7981 30.9757 56.8472 31.9266 55.6742 31.9266H42.8578C41.6848 31.9266 40.7339 30.9757 40.7339 29.8028V24.7707Z" fill="#FCFCFC"/>
<path d="M58.3486 20.9175C51.5414 19.4923 47.491 19.4409 40.1834 20.821" stroke="#111111" stroke-width="2.83184" stroke-linecap="round"/>
<circle cx="48.4809" cy="27.0131" r="3.89379" fill="#111111"/>
<path d="M56.6972 32.4771C50.9214 31.7645 47.4848 31.7388 41.2844 32.4289" stroke="#00826A" stroke-width="1.77248" stroke-linecap="round"/>
<path d="M11.5596 24.7707C11.5596 22.3386 13.5312 20.367 15.9633 20.367H24.2202C26.6523 20.367 28.6239 22.3386 28.6239 24.7707V29.8028C28.6239 30.9757 27.673 31.9266 26.5 31.9266H13.6835C12.5105 31.9266 11.5596 30.9757 11.5596 29.8028V24.7707Z" fill="#FCFCFC"/>
<path d="M11.0092 20.9174C17.8163 19.4923 21.8667 19.4409 29.1743 20.821" stroke="#111111" stroke-width="2.83184" stroke-linecap="round"/>
<circle cx="20.4076" cy="27.0131" r="3.89379" fill="#111111"/>
<path d="M28.0734 32.4771C22.2976 31.7645 18.861 31.7388 12.6606 32.4289" stroke="#00826A" stroke-width="1.77248" stroke-linecap="round"/>
<path d="M42.0153 39.633H27.3318C26.8464 39.633 26.4636 40.0611 26.5927 40.529C28.3656 46.9526 40.8651 46.3872 42.7391 40.5331C42.8883 40.0672 42.5045 39.633 42.0153 39.633Z" fill="#FCFCFC"/>
</g>
<path d="M1.10089 34.4037C1.10089 16.0111 16.011 1.10092 34.4036 1.10092C52.7962 1.10092 67.7064 16.0111 67.7064 34.4037V61.1009H1.10089V34.4037Z" stroke="#12544B" stroke-width="2.20183"/>
<defs>
<clipPath id="clip0_498_327">
<path d="M1.10089 34.4037C1.10089 16.0111 16.011 1.10092 34.4036 1.10092C52.7962 1.10092 67.7064 16.0111 67.7064 34.4037V61.1009H1.10089V34.4037Z" fill="white"/>
</clipPath>
</defs>
</svg>
