<svg width="69" height="61" viewBox="0 0 69 61" fill="none" xmlns="http://www.w3.org/2000/svg">
<g clip-path="url(#clip0_498_487)">
<path d="M1.09998 34.375C1.09998 15.9978 15.9977 1.10001 34.375 1.10001C52.7523 1.10001 67.65 15.9977 67.65 34.375V61.05H1.09998V34.375Z" fill="#00A384"/>
<path d="M44.8249 62.15C56.6455 56.0942 61.7453 50.5142 67.6499 36.025V62.15H44.8249Z" fill="#03866D"/>
<path d="M10.4775 21.4338H27.5275V30.8617C27.5275 32.0337 26.5774 32.9838 25.4054 32.9838H12.5997C11.4276 32.9838 10.4775 32.0337 10.4775 30.8617V21.4338Z" fill="#FCFCFC"/>
<path d="M41.2775 21.4338H57.7775V30.8617C57.7775 32.0337 56.8274 32.9838 55.6554 32.9838H43.3996C42.2276 32.9838 41.2775 32.0337 41.2775 30.8617V21.4338Z" fill="#FCFCFC"/>
<circle cx="18.742" cy="27.836" r="3.89054" fill="#111111"/>
<circle cx="49.336" cy="27.836" r="3.89054" fill="#111111"/>
<path d="M27.9379 21.45C19.854 21.4959 15.8094 21.5649 9.8999 21.8037" stroke="#111111" stroke-width="2.82948" stroke-linecap="round"/>
<path d="M40.3169 21.4501C48.4007 21.4959 52.4453 21.5649 58.3549 21.8038" stroke="#111111" stroke-width="2.82948" stroke-linecap="round"/>
<path d="M43.4499 42.8674C35.0487 46.529 31.0389 45.2594 25.2351 42.3369" stroke="#00826A" stroke-width="2.4758" stroke-linecap="round"/>
</g>
<path d="M1.09998 34.375C1.09998 15.9978 15.9977 1.10001 34.375 1.10001C52.7523 1.10001 67.65 15.9977 67.65 34.375V61.05H1.09998V34.375Z" stroke="#12544B" stroke-width="2.2"/>
<defs>
<clipPath id="clip0_498_487">
<path d="M1.09998 34.375C1.09998 15.9978 15.9977 1.10001 34.375 1.10001C52.7523 1.10001 67.65 15.9977 67.65 34.375V61.05H1.09998V34.375Z" fill="white"/>
</clipPath>
</defs>
</svg>
