<svg width="69" height="61" viewBox="0 0 69 61" fill="none" xmlns="http://www.w3.org/2000/svg">
<g clip-path="url(#clip0_498_618)">
<path d="M1.09998 34.375C1.09998 15.9978 15.9977 1.10001 34.375 1.10001C52.7523 1.10001 67.65 15.9977 67.65 34.375V61.05H1.09998V34.375Z" fill="#00A384"/>
<mask id="mask0_498_618" style="mask-type:alpha" maskUnits="userSpaceOnUse" x="18" y="41" width="32" height="17">
<path d="M49.1704 41.25H19.5729C19.101 41.25 18.7281 41.6663 18.7761 42.1358C21.0098 63.9637 47.6613 61.9203 49.964 42.1369C50.0189 41.6657 49.6447 41.25 49.1704 41.25Z" fill="#FCFCFC"/>
</mask>
<g mask="url(#mask0_498_618)">
<path d="M49.1704 41.25H19.5729C19.101 41.25 18.7281 41.6663 18.7761 42.1358C21.0098 63.9637 47.6613 61.9203 49.964 42.1369C50.0189 41.6657 49.6447 41.25 49.1704 41.25Z" fill="#FCFCFC"/>
<path opacity="0.2" d="M19.2596 48.931L38.7575 48.7556M40.9239 48.7361L50.8895 48.6465" stroke="black" stroke-width="1.1"/>
</g>
<g filter="url(#filter0_i_498_618)">
<mask id="mask1_498_618" style="mask-type:alpha" maskUnits="userSpaceOnUse" x="6" y="12" width="56" height="26">
<path d="M14.9018 16.8674C16.4697 14.0559 17.253 12.6501 18.4249 12.6501C19.5967 12.6501 20.3801 14.0559 21.9479 16.8674L22.3538 17.595C22.7993 18.3945 23.0221 18.7942 23.3686 19.0577C23.7151 19.3213 24.1482 19.4191 25.0144 19.6146L25.8014 19.7928C28.8456 20.4821 30.3665 20.8261 30.729 21.9905C31.0904 23.1538 30.0534 24.3677 27.9781 26.7944L27.4411 27.4218C26.852 28.1111 26.5563 28.4563 26.4239 28.882C26.2915 29.3089 26.336 29.7693 26.4251 30.6887L26.5068 31.5265C26.8199 34.765 26.977 36.3836 26.0291 37.1025C25.0812 37.8215 23.6557 37.1657 20.807 35.8539L20.0682 35.5149C19.2589 35.1411 18.8543 34.9555 18.4249 34.9555C17.9955 34.9555 17.5908 35.1411 16.7815 35.5149L16.044 35.8539C13.1941 37.1657 11.7685 37.8215 10.8218 37.1038C9.8727 36.3836 10.0299 34.765 10.3429 31.5265L10.4246 30.69C10.5137 29.7693 10.5583 29.3089 10.4246 28.8833C10.2934 28.4563 9.99769 28.1111 9.40865 27.423L8.87159 26.7944C6.79635 24.369 5.75935 23.155 6.12069 21.9905C6.48203 20.8261 8.00536 20.4808 11.0495 19.7928L11.8366 19.6146C12.7016 19.4191 13.1334 19.3213 13.4812 19.0577C13.8289 18.7942 14.0504 18.3945 14.4959 17.595L14.9018 16.8674Z" fill="#FCC21B"/>
<path d="M45.1522 16.8674C46.7202 14.0558 47.5035 12.65 48.6754 12.65C49.8473 12.65 50.6307 14.0558 52.1986 16.8674L52.6045 17.5951C53.05 18.3945 53.2728 18.7942 53.6193 19.0578C53.9658 19.3214 54.3989 19.4192 55.2652 19.6147L56.0522 19.7929C59.0965 20.4822 60.6174 20.8262 60.98 21.9907C61.3413 23.154 60.3043 24.368 58.229 26.7947L57.6919 27.4221C57.1028 28.1114 56.8071 28.4567 56.6747 28.8824C56.5423 29.3093 56.5868 29.7697 56.6759 30.6891L56.7576 31.5269C57.0707 34.7655 57.2278 36.3842 56.2799 37.1032C55.332 37.8221 53.9064 37.1663 51.0576 35.8545L50.3188 35.5154C49.5095 35.1417 49.1048 34.9561 48.6754 34.9561C48.246 34.9561 47.8413 35.1417 47.032 35.5154L46.2945 35.8545C43.4445 37.1663 42.0189 37.8221 41.0722 37.1044C40.123 36.3842 40.2802 34.7655 40.5933 31.5269L40.6749 30.6904C40.764 29.7697 40.8086 29.3093 40.6749 28.8836C40.5438 28.4567 40.248 28.1114 39.6589 27.4234L39.1219 26.7947C37.0466 24.3692 36.0095 23.1552 36.3709 21.9907C36.7322 20.8262 38.2556 20.4809 41.2999 19.7929L42.0869 19.6147C42.9519 19.4192 43.3838 19.3214 43.7316 19.0578C44.0793 18.7942 44.3008 18.3945 44.7463 17.5951L45.1522 16.8674Z" fill="#FCC21B"/>
</mask>
<g mask="url(#mask1_498_618)">
<path d="M14.9018 16.8674C16.4697 14.0559 17.253 12.6501 18.4249 12.6501C19.5967 12.6501 20.3801 14.0559 21.9479 16.8674L22.3538 17.595C22.7993 18.3945 23.0221 18.7942 23.3686 19.0577C23.7151 19.3213 24.1482 19.4191 25.0144 19.6146L25.8014 19.7928C28.8456 20.4821 30.3665 20.8261 30.729 21.9905C31.0904 23.1538 30.0534 24.3677 27.9781 26.7944L27.4411 27.4218C26.852 28.1111 26.5563 28.4563 26.4239 28.882C26.2915 29.3089 26.336 29.7693 26.4251 30.6887L26.5068 31.5265C26.8199 34.765 26.977 36.3836 26.0291 37.1025C25.0812 37.8215 23.6557 37.1657 20.807 35.8539L20.0682 35.5149C19.2589 35.1411 18.8543 34.9555 18.4249 34.9555C17.9955 34.9555 17.5908 35.1411 16.7815 35.5149L16.044 35.8539C13.1941 37.1657 11.7685 37.8215 10.8218 37.1038C9.8727 36.3836 10.0299 34.765 10.3429 31.5265L10.4246 30.69C10.5137 29.7693 10.5583 29.3089 10.4246 28.8833C10.2934 28.4563 9.99769 28.1111 9.40865 27.423L8.87159 26.7944C6.79635 24.369 5.75935 23.155 6.12069 21.9905C6.48203 20.8261 8.00536 20.4808 11.0495 19.7928L11.8366 19.6146C12.7016 19.4191 13.1334 19.3213 13.4812 19.0577C13.8289 18.7942 14.0504 18.3945 14.4959 17.595L14.9018 16.8674Z" fill="#FCC21B"/>
<path d="M45.1522 16.8674C46.7202 14.0558 47.5035 12.65 48.6754 12.65C49.8473 12.65 50.6307 14.0558 52.1986 16.8674L52.6045 17.5951C53.05 18.3945 53.2728 18.7942 53.6193 19.0578C53.9658 19.3214 54.3989 19.4192 55.2652 19.6147L56.0522 19.7929C59.0965 20.4822 60.6174 20.8262 60.98 21.9907C61.3413 23.154 60.3043 24.368 58.229 26.7947L57.6919 27.4221C57.1028 28.1114 56.8071 28.4567 56.6747 28.8824C56.5423 29.3093 56.5868 29.7697 56.6759 30.6891L56.7576 31.5269C57.0707 34.7655 57.2278 36.3842 56.2799 37.1032C55.332 37.8221 53.9064 37.1663 51.0576 35.8545L50.3188 35.5154C49.5095 35.1417 49.1048 34.9561 48.6754 34.9561C48.246 34.9561 47.8413 35.1417 47.032 35.5154L46.2945 35.8545C43.4445 37.1663 42.0189 37.8221 41.0722 37.1044C40.123 36.3842 40.2802 34.7655 40.5933 31.5269L40.6749 30.6904C40.764 29.7697 40.8086 29.3093 40.6749 28.8836C40.5438 28.4567 40.248 28.1114 39.6589 27.4234L39.1219 26.7947C37.0466 24.3692 36.0095 23.1552 36.3709 21.9907C36.7322 20.8262 38.2556 20.4809 41.2999 19.7929L42.0869 19.6147C42.9519 19.4192 43.3838 19.3214 43.7316 19.0578C44.0793 18.7942 44.3008 18.3945 44.7463 17.5951L45.1522 16.8674Z" fill="#FCC21B"/>
<rect opacity="0.5" x="48.1398" y="7.62299" width="11" height="32.3125" transform="rotate(17 48.1398 7.62299)" fill="#FCFCFC"/>
<rect opacity="0.5" x="20.3098" y="6.46249" width="11" height="32.3125" transform="rotate(17 20.3098 6.46249)" fill="#FCFCFC"/>
</g>
</g>
<path d="M44.8249 62.15C56.6455 56.0942 61.7453 50.5142 67.6499 36.025V62.15H44.8249Z" fill="#03866D"/>
</g>
<path d="M1.09998 34.375C1.09998 15.9978 15.9977 1.10001 34.375 1.10001C52.7523 1.10001 67.65 15.9977 67.65 34.375V61.05H1.09998V34.375Z" stroke="#12544B" stroke-width="2.2"/>
<defs>
<filter id="filter0_i_498_618" x="6.04987" y="12.65" width="55.0009" height="24.75" filterUnits="userSpaceOnUse" color-interpolation-filters="sRGB">
<feFlood flood-opacity="0" result="BackgroundImageFix"/>
<feBlend mode="normal" in="SourceGraphic" in2="BackgroundImageFix" result="shape"/>
<feColorMatrix in="SourceAlpha" type="matrix" values="0 0 0 0 0 0 0 0 0 0 0 0 0 0 0 0 0 0 127 0" result="hardAlpha"/>
<feOffset dx="-1.375" dy="-1.375"/>
<feComposite in2="hardAlpha" operator="arithmetic" k2="-1" k3="1"/>
<feColorMatrix type="matrix" values="0 0 0 0 0.996078 0 0 0 0 0.419608 0 0 0 0 0.0117647 0 0 0 1 0"/>
<feBlend mode="normal" in2="shape" result="effect1_innerShadow_498_618"/>
</filter>
<clipPath id="clip0_498_618">
<path d="M1.09998 34.375C1.09998 15.9978 15.9977 1.10001 34.375 1.10001C52.7523 1.10001 67.65 15.9977 67.65 34.375V61.05H1.09998V34.375Z" fill="white"/>
</clipPath>
</defs>
</svg>
