<svg width="69" height="61" viewBox="0 0 69 61" fill="none" xmlns="http://www.w3.org/2000/svg">
<g clip-path="url(#clip0_498_513)">
<path d="M1.09998 34.375C1.09998 15.9978 15.9977 1.10001 34.375 1.10001C52.7523 1.10001 67.65 15.9977 67.65 34.375V61.05H1.09998V34.375Z" fill="#00A384"/>
<path d="M44.8249 62.15C56.6455 56.0942 61.7453 50.5142 67.6499 36.025V62.15H44.8249Z" fill="#03866D"/>
<path d="M10.4499 22.2015C16.3226 22.906 20.3863 22.5765 27.4999 20.9" stroke="#111111" stroke-width="2.82948" stroke-linecap="round"/>
<path d="M27.4999 25.0985C21.6272 24.394 17.5635 24.7235 10.4499 26.4" stroke="#111111" stroke-width="2.82948" stroke-linecap="round"/>
<path d="M58.2999 22.2015C52.0483 22.906 47.7224 22.5765 40.1499 20.9" stroke="#111111" stroke-width="2.82948" stroke-linecap="round"/>
<path d="M40.1499 25.0985C46.4015 24.394 50.7274 24.7235 58.2999 26.4" stroke="#111111" stroke-width="2.82948" stroke-linecap="round"/>
<path d="M24.8265 50.3545C31.0749 30.3728 35.4276 24.4552 44.4658 49.4427C44.5063 49.5546 44.4295 49.6812 44.3106 49.6868L25.0021 50.5882C24.8795 50.594 24.7899 50.4716 24.8265 50.3545Z" fill="#00826A" stroke="#00826A" stroke-width="2.4758" stroke-linecap="round"/>
</g>
<path d="M1.09998 34.375C1.09998 15.9978 15.9977 1.10001 34.375 1.10001C52.7523 1.10001 67.65 15.9977 67.65 34.375V61.05H1.09998V34.375Z" stroke="#12544B" stroke-width="2.2"/>
<defs>
<clipPath id="clip0_498_513">
<path d="M1.09998 34.375C1.09998 15.9978 15.9977 1.10001 34.375 1.10001C52.7523 1.10001 67.65 15.9977 67.65 34.375V61.05H1.09998V34.375Z" fill="white"/>
</clipPath>
</defs>
</svg>
