<svg width="69" height="61" viewBox="0 0 69 61" fill="none" xmlns="http://www.w3.org/2000/svg">
<g clip-path="url(#clip0_498_543)">
<path d="M1.09998 34.375C1.09998 15.9978 15.9977 1.10001 34.375 1.10001C52.7523 1.10001 67.65 15.9977 67.65 34.375V61.05H1.09998V34.375Z" fill="#00A384"/>
<path d="M44.8249 62.15C56.6455 56.0942 61.7453 50.5142 67.6499 36.025V62.15H44.8249Z" fill="#03866D"/>
<path d="M10.4775 21.9838H27.5275V30.8617C27.5275 32.0337 26.5774 32.9838 25.4054 32.9838H12.5997C11.4276 32.9838 10.4775 32.0337 10.4775 30.8617V21.9838Z" fill="#FCFCFC"/>
<path d="M41.2775 21.9838H57.7775V30.8617C57.7775 32.0337 56.8274 32.9838 55.6554 32.9838H43.3996C42.2276 32.9838 41.2775 32.0337 41.2775 30.8617V21.9838Z" fill="#FCFCFC"/>
<circle cx="18.742" cy="27.5406" r="3.89054" fill="#111111"/>
<circle cx="49.336" cy="27.5406" r="3.89054" fill="#111111"/>
<path d="M9.34985 21.2177C15.6015 21.6873 19.9273 21.4677 27.4999 20.35" stroke="#111111" stroke-width="2.82948" stroke-linecap="round"/>
<path d="M58.2999 21.2177C52.0483 21.6873 47.7224 21.4677 40.1499 20.35" stroke="#111111" stroke-width="2.82948" stroke-linecap="round"/>
<path d="M30.1722 44.2089C32.9716 42.2228 35.0993 41.4383 39.1186 43.8338C39.2674 43.9224 39.2096 44.1466 39.0366 44.154L30.281 44.5254C30.1064 44.5328 30.0297 44.31 30.1722 44.2089Z" stroke="#00826A" stroke-width="2.4758" stroke-linecap="round"/>
<path d="M57.1999 33C51.4289 32.288 47.9951 32.2624 41.7999 32.9518" stroke="#00826A" stroke-width="1.771" stroke-linecap="round"/>
<path d="M26.3999 33C20.6289 32.288 17.1951 32.2624 10.9999 32.9518" stroke="#00826A" stroke-width="1.771" stroke-linecap="round"/>
</g>
<path d="M1.09998 34.375C1.09998 15.9978 15.9977 1.10001 34.375 1.10001C52.7523 1.10001 67.65 15.9977 67.65 34.375V61.05H1.09998V34.375Z" stroke="#12544B" stroke-width="2.2"/>
<defs>
<clipPath id="clip0_498_543">
<path d="M1.09998 34.375C1.09998 15.9978 15.9977 1.10001 34.375 1.10001C52.7523 1.10001 67.65 15.9977 67.65 34.375V61.05H1.09998V34.375Z" fill="white"/>
</clipPath>
</defs>
</svg>
