<svg width="224" height="140" viewBox="0 0 224 140" fill="none" xmlns="http://www.w3.org/2000/svg">
<g clip-path="url(#clip0_685_44)">
<rect width="224" height="140" rx="16" fill="#CAF1F5"/>
<path d="M174 47C105.517 47 50 79.6832 50 120C50 130.888 54.0489 141.219 61.3086 150.5H232.5V55.6183C215.074 50.1189 195.155 47 174 47Z" fill="#A2E8EF"/>
<path d="M33.1267 42.168C31.9747 42.168 30.8867 41.992 29.8627 41.64C28.8547 41.288 27.9667 40.76 27.1987 40.056C26.4467 39.352 25.8467 38.464 25.3987 37.392C24.9667 36.32 24.7507 35.056 24.7507 33.6C24.7507 32.144 24.9667 30.88 25.3987 29.808C25.8467 28.72 26.4467 27.824 27.1987 27.12C27.9667 26.4 28.8547 25.872 29.8627 25.536C30.8867 25.184 31.9747 25.016 33.1267 25.032C34.2787 25.048 35.3587 25.232 36.3667 25.584C37.3907 25.92 38.2787 26.448 39.0307 27.168C39.7987 27.872 40.3987 28.76 40.8307 29.832C41.2787 30.888 41.5027 32.144 41.5027 33.6C41.5027 35.056 41.2787 36.32 40.8307 37.392C40.3987 38.464 39.7987 39.352 39.0307 40.056C38.2787 40.76 37.3907 41.288 36.3667 41.64C35.3587 41.992 34.2787 42.168 33.1267 42.168ZM33.1267 27.24C32.3587 27.24 31.6147 27.384 30.8947 27.672C30.1747 27.944 29.5347 28.352 28.9747 28.896C28.4147 29.44 27.9587 30.112 27.6067 30.912C27.2707 31.696 27.1027 32.592 27.1027 33.6C27.1027 34.608 27.2707 35.504 27.6067 36.288C27.9427 37.072 28.3907 37.736 28.9507 38.28C29.5267 38.824 30.1747 39.24 30.8947 39.528C31.6147 39.816 32.3587 39.96 33.1267 39.96C33.9427 39.96 34.7107 39.816 35.4307 39.528C36.1667 39.24 36.8067 38.824 37.3507 38.28C37.9107 37.736 38.3507 37.072 38.6707 36.288C38.9907 35.504 39.1507 34.608 39.1507 33.6C39.1507 32.592 38.9827 31.696 38.6467 30.912C38.3107 30.128 37.8547 29.464 37.2787 28.92C36.7187 28.376 36.0787 27.968 35.3587 27.696C34.6387 27.408 33.8947 27.256 33.1267 27.24ZM42.7552 42V25.2H45.1312L45.0352 34.728C45.0352 35 44.9952 35.296 44.9152 35.616C44.8512 35.92 44.7552 36.192 44.6272 36.432L44.6752 36.456C44.7872 36.216 44.9312 35.968 45.1072 35.712C45.2992 35.44 45.5072 35.216 45.7312 35.04L51.5632 30H54.8512L49.3792 34.776L55.2112 41.976H54.5152V42L54.4912 41.976H52.2352L47.6272 36.216L45.1312 38.328V42H42.7552ZM64.6073 39.048C64.4473 39.544 64.1993 39.976 63.8633 40.344C63.5273 40.712 63.1353 41.016 62.6873 41.256C62.2553 41.496 61.7833 41.68 61.2713 41.808C60.7593 41.92 60.2473 41.976 59.7353 41.976C59.1433 41.976 58.5673 41.904 58.0073 41.76C57.4473 41.616 56.9513 41.4 56.5193 41.112C56.0873 40.824 55.7353 40.472 55.4633 40.056C55.2073 39.624 55.0793 39.136 55.0793 38.592C55.0793 37.712 55.3113 37.048 55.7753 36.6C56.2553 36.136 56.8473 35.8 57.5513 35.592C58.2713 35.384 59.0393 35.272 59.8553 35.256C60.6873 35.224 61.4553 35.2 62.1593 35.184C62.8793 35.152 63.4713 35.088 63.9353 34.992C64.3993 34.896 64.6233 34.68 64.6073 34.344C64.5753 33.432 64.2633 32.784 63.6713 32.4C63.0953 32.016 62.2313 31.824 61.0793 31.824C60.6153 31.824 60.1753 31.856 59.7593 31.92C59.3593 31.984 58.9993 32.104 58.6793 32.28C58.3753 32.456 58.1193 32.696 57.9113 33C57.7033 33.304 57.5673 33.696 57.5033 34.176L55.4393 33.888C55.5193 33.168 55.7353 32.552 56.0873 32.04C56.4393 31.528 56.8793 31.12 57.4073 30.816C57.9353 30.496 58.5193 30.272 59.1593 30.144C59.7993 30 60.4393 29.928 61.0793 29.928C61.7993 29.928 62.5033 30.008 63.1913 30.168C63.8953 30.328 64.5193 30.592 65.0633 30.96C65.6073 31.312 66.0393 31.792 66.3593 32.4C66.6953 32.992 66.8633 33.736 66.8633 34.632V39C66.8633 39.32 66.9193 39.528 67.0313 39.624C67.1433 39.72 67.3273 39.768 67.5833 39.768H68.1353V42H66.5993C65.9913 42 65.5033 41.816 65.1353 41.448C64.7833 41.08 64.6073 40.632 64.6073 40.104V39.048ZM57.3833 38.544C57.3833 38.864 57.4633 39.144 57.6233 39.384C57.7833 39.608 57.9913 39.8 58.2473 39.96C58.5193 40.104 58.8313 40.216 59.1833 40.296C59.5513 40.36 59.9273 40.392 60.3113 40.392C60.8073 40.392 61.3113 40.336 61.8233 40.224C62.3353 40.096 62.7913 39.92 63.1913 39.696C63.6073 39.472 63.9433 39.2 64.1993 38.88C64.4713 38.544 64.6073 38.168 64.6073 37.752V36.168C64.2713 36.36 63.8553 36.488 63.3593 36.552C62.8633 36.616 62.3433 36.656 61.7993 36.672C61.2713 36.688 60.7433 36.704 60.2153 36.72C59.6873 36.736 59.2153 36.8 58.7993 36.912C58.3833 37.024 58.0393 37.208 57.7673 37.464C57.5113 37.704 57.3833 38.064 57.3833 38.544ZM68.3393 30H70.8593L73.9553 37.872C74.0673 38.128 74.1473 38.416 74.1953 38.736C74.2433 39.056 74.2673 39.352 74.2673 39.624H74.3153C74.3153 39.352 74.3393 39.056 74.3873 38.736C74.4513 38.416 74.5393 38.128 74.6513 37.872L77.7713 30H80.2913L74.7953 43.704C74.5553 44.376 74.2593 44.928 73.9073 45.36C73.5553 45.792 73.1873 46.136 72.8033 46.392C72.4193 46.648 72.0273 46.824 71.6273 46.92C71.2433 47.016 70.8833 47.064 70.5473 47.064H68.4113V45.168H69.6353C69.7793 45.168 69.9793 45.144 70.2353 45.096C70.4913 45.048 70.7553 44.96 71.0273 44.832C71.2993 44.704 71.5553 44.528 71.7953 44.304C72.0513 44.096 72.2353 43.824 72.3473 43.488L72.9713 41.568L68.3393 30Z" fill="black"/>
<g clip-path="url(#clip1_685_44)">
<path d="M102 92.5C102 59.0868 129.087 32 162.5 32C195.913 32 223 59.0868 223 92.5V141H102V92.5Z" fill="#00A384"/>
<path d="M181.5 143C202.992 131.989 212.264 121.844 223 95.5V143H181.5Z" fill="#03866D"/>
<path d="M119.05 68.9705H150.05V86.1121C150.05 88.243 148.323 89.9705 146.192 89.9705H122.909C120.778 89.9705 119.05 88.243 119.05 86.1121V68.9705Z" fill="#FCFCFC"/>
<path d="M175.05 68.9705H205.05V86.1121C205.05 88.243 203.323 89.9705 201.192 89.9705H178.909C176.778 89.9705 175.05 88.243 175.05 86.1121V68.9705Z" fill="#FCFCFC"/>
<circle cx="134.077" cy="80.6108" r="7.07371" fill="#111111"/>
<circle cx="189.702" cy="80.6108" r="7.07371" fill="#111111"/>
<path d="M150.796 69C136.098 69.0834 128.745 69.2088 118 69.6431" stroke="#111111" stroke-width="5.14452" stroke-linecap="round"/>
<path d="M173.304 69.0001C188.002 69.0835 195.355 69.2089 206.1 69.6432" stroke="#111111" stroke-width="5.14452" stroke-linecap="round"/>
<path d="M179 107.941C163.725 114.598 156.435 112.29 145.882 106.976" stroke="#00826A" stroke-width="4.50145" stroke-linecap="round"/>
</g>
<path d="M102 92.5C102 59.0868 129.087 32 162.5 32C195.913 32 223 59.0868 223 92.5V141H102V92.5Z" stroke="#12544B" stroke-width="4"/>
</g>
<rect x="0.5" y="0.5" width="223" height="139" rx="15.5" stroke="black" stroke-opacity="0.14"/>
<defs>
<clipPath id="clip0_685_44">
<rect width="224" height="140" rx="16" fill="white"/>
</clipPath>
<clipPath id="clip1_685_44">
<path d="M102 92.5C102 59.0868 129.087 32 162.5 32C195.913 32 223 59.0868 223 92.5V141H102V92.5Z" fill="white"/>
</clipPath>
</defs>
</svg>
