<svg width="224" height="140" viewBox="0 0 224 140" fill="none" xmlns="http://www.w3.org/2000/svg">
<g clip-path="url(#clip0_685_70)">
<rect width="224" height="140" rx="16" fill="#CAF1F5"/>
<path d="M174 47C105.517 47 50 79.6832 50 120C50 130.888 54.0489 141.219 61.3086 150.5H232.5V55.6183C215.074 50.1189 195.155 47 174 47Z" fill="#A2E8EF"/>
<path d="M26.88 36.864C26.96 37.824 27.4 38.568 28.2 39.096C29.016 39.624 30.104 39.896 31.464 39.912C32.984 39.912 34.16 39.648 34.992 39.12C35.84 38.592 36.264 37.816 36.264 36.792C36.264 36.296 36.096 35.904 35.76 35.616C35.44 35.328 35.008 35.096 34.464 34.92C33.936 34.728 33.328 34.584 32.64 34.488C31.968 34.376 31.272 34.264 30.552 34.152C29.848 34.024 29.152 33.88 28.464 33.72C27.792 33.544 27.184 33.304 26.64 33C26.112 32.696 25.68 32.304 25.344 31.824C25.024 31.328 24.864 30.712 24.864 29.976C24.864 29.128 25.032 28.392 25.368 27.768C25.72 27.128 26.2 26.6 26.808 26.184C27.416 25.768 28.128 25.456 28.944 25.248C29.76 25.04 30.632 24.944 31.56 24.96C32.424 24.976 33.224 25.08 33.96 25.272C34.712 25.464 35.368 25.752 35.928 26.136C36.504 26.504 36.968 26.968 37.32 27.528C37.672 28.088 37.88 28.744 37.944 29.496L35.688 29.808C35.608 28.976 35.248 28.328 34.608 27.864C33.968 27.4 32.952 27.168 31.56 27.168C30.184 27.168 29.112 27.416 28.344 27.912C27.592 28.392 27.216 29.08 27.216 29.976C27.216 30.424 27.376 30.776 27.696 31.032C28.032 31.272 28.464 31.472 28.992 31.632C29.536 31.776 30.144 31.896 30.816 31.992C31.504 32.088 32.2 32.192 32.904 32.304C33.624 32.416 34.32 32.56 34.992 32.736C35.68 32.912 36.288 33.168 36.816 33.504C37.36 33.824 37.792 34.24 38.112 34.752C38.448 35.264 38.616 35.92 38.616 36.72C38.616 37.296 38.512 37.904 38.304 38.544C38.112 39.168 37.744 39.752 37.2 40.296C36.672 40.824 35.944 41.264 35.016 41.616C34.104 41.952 32.928 42.12 31.488 42.12C30.16 42.12 29.064 41.976 28.2 41.688C27.336 41.4 26.64 41.024 26.112 40.56C25.6 40.08 25.232 39.544 25.008 38.952C24.784 38.36 24.648 37.76 24.6 37.152L26.88 36.864ZM38.9822 32.112V29.904H39.4382C39.7102 29.904 39.9902 29.792 40.2782 29.568C40.5822 29.344 40.8542 29.056 41.0942 28.704C41.3342 28.352 41.5342 27.96 41.6942 27.528C41.8542 27.096 41.9342 26.672 41.9342 26.256L44.3102 26.232C44.2782 26.904 44.1182 27.544 43.8302 28.152C43.5422 28.744 43.1182 29.224 42.5582 29.592C42.3502 29.72 42.0942 29.816 41.7902 29.88C41.5022 29.928 41.2382 29.976 40.9982 30.024V30.072C41.2382 30.024 41.5022 29.984 41.7902 29.952C42.0942 29.92 42.3662 29.904 42.6062 29.904H46.8542V32.112H43.8062V38.496C43.8062 39.024 43.9342 39.376 44.1902 39.552C44.4462 39.712 44.7582 39.792 45.1262 39.792H47.4302V42H45.2462C44.4622 42 43.8222 41.928 43.3262 41.784C42.8302 41.624 42.4462 41.384 42.1742 41.064C41.9022 40.744 41.7102 40.336 41.5982 39.84C41.5022 39.328 41.4542 38.728 41.4542 38.04V32.112H38.9822ZM48.1809 33.216C48.1809 32.128 48.4369 31.32 48.9489 30.792C49.4609 30.264 50.2689 30 51.3729 30H56.1969V32.208L52.1409 32.232C51.8049 32.232 51.5329 32.248 51.3249 32.28C51.1169 32.312 50.9489 32.392 50.8209 32.52C50.7089 32.632 50.6289 32.808 50.5809 33.048C50.5489 33.288 50.5329 33.616 50.5329 34.032V42H48.1809V33.216ZM62.7681 42.144C61.8881 42.144 61.0481 42.024 60.2481 41.784C59.4481 41.528 58.7441 41.144 58.1361 40.632C57.5441 40.12 57.0721 39.48 56.7201 38.712C56.3681 37.944 56.1921 37.04 56.1921 36C56.1921 34.96 56.3681 34.056 56.7201 33.288C57.0721 32.52 57.5441 31.88 58.1361 31.368C58.7441 30.856 59.4481 30.48 60.2481 30.24C61.0481 29.984 61.8881 29.856 62.7681 29.856C63.6481 29.856 64.4721 29.984 65.2401 30.24C66.0241 30.496 66.7041 30.88 67.2801 31.392C67.8561 31.888 68.3121 32.52 68.6481 33.288C68.9841 34.056 69.1521 34.96 69.1521 36C69.1521 36.176 69.1521 36.296 69.1521 36.36C69.1521 36.408 69.1361 36.512 69.1041 36.672H58.6401C58.8161 37.872 59.2801 38.768 60.0321 39.36C60.7841 39.952 61.7121 40.24 62.8161 40.224C63.7441 40.208 64.5521 40.032 65.2401 39.696C65.9441 39.36 66.4641 38.744 66.8001 37.848L68.9601 38.136C68.7361 38.856 68.4161 39.472 68.0001 39.984C67.6001 40.496 67.1281 40.912 66.5841 41.232C66.0401 41.536 65.4401 41.768 64.7841 41.928C64.1441 42.072 63.4721 42.144 62.7681 42.144ZM62.8161 31.704C62.2881 31.704 61.7601 31.808 61.2321 32.016C60.7041 32.208 60.2401 32.512 59.8401 32.928C59.4401 33.328 59.1201 33.84 58.8801 34.464C58.6561 35.088 58.5761 35.824 58.6401 36.672C58.7361 36.352 58.8401 36.096 58.9521 35.904C59.0801 35.712 59.2241 35.568 59.3841 35.472C59.5601 35.376 59.7521 35.312 59.9601 35.28C60.1841 35.248 60.4401 35.232 60.7281 35.232H66.9201C66.7441 34 66.2881 33.112 65.5521 32.568C64.8321 32.008 63.9201 31.72 62.8161 31.704ZM72.5346 38.136C72.6466 38.952 73.0066 39.52 73.6146 39.84C74.2226 40.144 75.0626 40.296 76.1346 40.296C77.2866 40.296 78.1586 40.128 78.7506 39.792C79.3426 39.456 79.6386 38.896 79.6386 38.112C79.6386 37.728 79.4066 37.456 78.9426 37.296C78.4946 37.136 77.9346 37.016 77.2626 36.936C76.5906 36.84 75.8546 36.752 75.0546 36.672C74.2546 36.576 73.5186 36.424 72.8466 36.216C72.1746 36.008 71.6066 35.696 71.1426 35.28C70.6946 34.864 70.4706 34.288 70.4706 33.552C70.4706 32.976 70.5746 32.488 70.7826 32.088C71.0066 31.672 71.2866 31.328 71.6226 31.056C71.9586 30.784 72.3346 30.568 72.7506 30.408C73.1826 30.232 73.6066 30.104 74.0226 30.024C74.4386 29.944 74.8386 29.896 75.2226 29.88C75.6066 29.848 75.9186 29.832 76.1586 29.832C76.6226 29.832 77.1506 29.88 77.7426 29.976C78.3506 30.056 78.9266 30.216 79.4706 30.456C80.0306 30.696 80.5106 31.024 80.9106 31.44C81.3266 31.856 81.5826 32.4 81.6786 33.072L79.5426 33.384C79.4146 32.712 79.0706 32.264 78.5106 32.04C77.9666 31.8 77.1666 31.68 76.1106 31.68C75.0226 31.68 74.1986 31.816 73.6386 32.088C73.0946 32.36 72.8226 32.872 72.8226 33.624C72.8226 34.008 73.0466 34.288 73.4946 34.464C73.9586 34.624 74.5266 34.752 75.1986 34.848C75.8706 34.944 76.6066 35.032 77.4066 35.112C78.2066 35.192 78.9426 35.336 79.6146 35.544C80.2866 35.752 80.8466 36.056 81.2946 36.456C81.7586 36.856 81.9906 37.424 81.9906 38.16C81.9906 39.072 81.7506 39.8 81.2706 40.344C80.8066 40.872 80.2466 41.272 79.5906 41.544C78.9506 41.8 78.3026 41.96 77.6466 42.024C76.9906 42.104 76.4706 42.144 76.0866 42.144C75.8626 42.144 75.5666 42.128 75.1986 42.096C74.8306 42.064 74.4386 42.008 74.0226 41.928C73.6066 41.832 73.1826 41.704 72.7506 41.544C72.3346 41.384 71.9426 41.168 71.5746 40.896C71.2226 40.624 70.9266 40.296 70.6866 39.912C70.4466 39.528 70.3026 39.072 70.2546 38.544L72.5346 38.136ZM85.3314 38.136C85.4434 38.952 85.8034 39.52 86.4114 39.84C87.0194 40.144 87.8594 40.296 88.9314 40.296C90.0834 40.296 90.9554 40.128 91.5474 39.792C92.1394 39.456 92.4354 38.896 92.4354 38.112C92.4354 37.728 92.2034 37.456 91.7394 37.296C91.2914 37.136 90.7314 37.016 90.0594 36.936C89.3874 36.84 88.6514 36.752 87.8514 36.672C87.0514 36.576 86.3154 36.424 85.6434 36.216C84.9714 36.008 84.4034 35.696 83.9394 35.28C83.4914 34.864 83.2674 34.288 83.2674 33.552C83.2674 32.976 83.3714 32.488 83.5794 32.088C83.8034 31.672 84.0834 31.328 84.4194 31.056C84.7554 30.784 85.1314 30.568 85.5474 30.408C85.9794 30.232 86.4034 30.104 86.8194 30.024C87.2354 29.944 87.6354 29.896 88.0194 29.88C88.4034 29.848 88.7154 29.832 88.9554 29.832C89.4194 29.832 89.9474 29.88 90.5394 29.976C91.1474 30.056 91.7234 30.216 92.2674 30.456C92.8274 30.696 93.3074 31.024 93.7074 31.44C94.1234 31.856 94.3794 32.4 94.4754 33.072L92.3394 33.384C92.2114 32.712 91.8674 32.264 91.3074 32.04C90.7634 31.8 89.9634 31.68 88.9074 31.68C87.8194 31.68 86.9954 31.816 86.4354 32.088C85.8914 32.36 85.6194 32.872 85.6194 33.624C85.6194 34.008 85.8434 34.288 86.2914 34.464C86.7554 34.624 87.3234 34.752 87.9954 34.848C88.6674 34.944 89.4034 35.032 90.2034 35.112C91.0034 35.192 91.7394 35.336 92.4114 35.544C93.0834 35.752 93.6434 36.056 94.0914 36.456C94.5554 36.856 94.7874 37.424 94.7874 38.16C94.7874 39.072 94.5474 39.8 94.0674 40.344C93.6034 40.872 93.0434 41.272 92.3874 41.544C91.7474 41.8 91.0994 41.96 90.4434 42.024C89.7874 42.104 89.2674 42.144 88.8834 42.144C88.6594 42.144 88.3634 42.128 87.9954 42.096C87.6274 42.064 87.2354 42.008 86.8194 41.928C86.4034 41.832 85.9794 41.704 85.5474 41.544C85.1314 41.384 84.7394 41.168 84.3714 40.896C84.0194 40.624 83.7234 40.296 83.4834 39.912C83.2434 39.528 83.0994 39.072 83.0514 38.544L85.3314 38.136Z" fill="black"/>
<g clip-path="url(#clip1_685_70)">
<path d="M102 92.5C102 59.0868 129.087 32 162.5 32C195.913 32 223 59.0868 223 92.5V141H102V92.5Z" fill="#00A384"/>
<path d="M181.5 143C202.992 131.989 212.264 121.844 223 95.5V143H181.5Z" fill="#03866D"/>
<path d="M119 70.3664C129.678 71.6473 137.066 71.0482 150 68" stroke="#111111" stroke-width="5.14452" stroke-linecap="round"/>
<path d="M150 75.6336C139.322 74.3527 131.934 74.9518 119 78" stroke="#111111" stroke-width="5.14452" stroke-linecap="round"/>
<path d="M206 70.3664C194.633 71.6473 186.768 71.0482 173 68" stroke="#111111" stroke-width="5.14452" stroke-linecap="round"/>
<path d="M173 75.6336C184.367 74.3527 192.232 74.9518 206 78" stroke="#111111" stroke-width="5.14452" stroke-linecap="round"/>
<path d="M145.139 121.554C156.5 85.2233 164.414 74.4639 180.847 119.896C180.921 120.099 180.781 120.33 180.565 120.34L145.459 121.979C145.236 121.989 145.073 121.767 145.139 121.554Z" fill="#00826A" stroke="#00826A" stroke-width="4.50145" stroke-linecap="round"/>
</g>
<path d="M102 92.5C102 59.0868 129.087 32 162.5 32C195.913 32 223 59.0868 223 92.5V141H102V92.5Z" stroke="#12544B" stroke-width="4"/>
</g>
<rect x="0.5" y="0.5" width="223" height="139" rx="15.5" stroke="black" stroke-opacity="0.14"/>
<defs>
<clipPath id="clip0_685_70">
<rect width="224" height="140" rx="16" fill="white"/>
</clipPath>
<clipPath id="clip1_685_70">
<path d="M102 92.5C102 59.0868 129.087 32 162.5 32C195.913 32 223 59.0868 223 92.5V141H102V92.5Z" fill="white"/>
</clipPath>
</defs>
</svg>
