<svg width="224" height="140" viewBox="0 0 224 140" fill="none" xmlns="http://www.w3.org/2000/svg">
<g clip-path="url(#clip0_491_982)">
<rect width="224" height="140" rx="16" fill="#CAF1F5"/>
<path d="M174 47C105.517 47 50 79.6832 50 120C50 130.888 54.0489 141.219 61.3086 150.5H232.5V55.6183C215.074 50.1189 195.155 47 174 47Z" fill="#A2E8EF"/>
<g clip-path="url(#clip1_491_982)">
<path d="M102 92.5C102 59.0868 129.087 32 162.5 32C195.913 32 223 59.0868 223 92.5V141H102V92.5Z" fill="#00A384"/>
<mask id="mask0_491_982" style="mask-type:alpha" maskUnits="userSpaceOnUse" x="134" y="105" width="57" height="30">
<path d="M189.401 105H135.587C134.729 105 134.051 105.757 134.139 106.611C138.2 146.298 186.657 142.582 190.844 106.613C190.944 105.756 190.263 105 189.401 105Z" fill="#FCFCFC"/>
</mask>
<g mask="url(#mask0_491_982)">
<path d="M189.401 105H135.587C134.729 105 134.051 105.757 134.139 106.611C138.2 146.298 186.657 142.582 190.844 106.613C190.944 105.756 190.263 105 189.401 105Z" fill="#FCFCFC"/>
<path opacity="0.2" d="M135.018 118.966L170.468 118.647M174.407 118.611L192.527 118.448" stroke="black" stroke-width="2"/>
</g>
<g filter="url(#filter0_i_491_982)">
<mask id="mask1_491_982" style="mask-type:alpha" maskUnits="userSpaceOnUse" x="111" y="53" width="101" height="45">
<path d="M127.094 60.6679C129.945 55.5561 131.369 53.0001 133.5 53.0001C135.631 53.0001 137.055 55.5561 139.906 60.6679L140.644 61.9909C141.454 63.4444 141.859 64.1711 142.489 64.6503C143.119 65.1296 143.906 65.3073 145.481 65.6628L146.912 65.9868C152.447 67.24 155.212 67.8655 155.871 69.9827C156.528 72.0977 154.643 74.3049 150.87 78.717L149.893 79.8577C148.822 81.111 148.284 81.7387 148.044 82.5127C147.803 83.2889 147.884 84.1259 148.046 85.7976L148.194 87.3208C148.764 93.2089 149.049 96.1519 147.326 97.4591C145.602 98.7663 143.011 97.5738 137.831 95.1889L136.488 94.5724C135.016 93.8929 134.281 93.5554 133.5 93.5554C132.719 93.5554 131.984 93.8929 130.512 94.5724L129.171 95.1889C123.989 97.5738 121.398 98.7663 119.676 97.4613C117.951 96.1519 118.236 93.2089 118.806 87.3208L118.954 85.7998C119.116 84.1259 119.197 83.2889 118.954 82.5149C118.716 81.7387 118.178 81.111 117.107 79.86L116.13 78.717C112.357 74.3071 110.472 72.0999 111.129 69.9827C111.786 67.8655 114.555 67.2378 120.09 65.9868L121.521 65.6628C123.094 65.3073 123.879 65.1296 124.511 64.6503C125.144 64.1711 125.546 63.4444 126.356 61.9909L127.094 60.6679Z" fill="#FCC21B"/>
<path d="M182.095 60.668C184.946 55.556 186.37 53 188.501 53C190.631 53 192.056 55.556 194.906 60.668L195.644 61.9911C196.454 63.4446 196.859 64.1713 197.489 64.6506C198.119 65.1298 198.907 65.3076 200.482 65.6631L201.913 65.9871C207.448 67.2403 210.213 67.8658 210.873 69.9831C211.53 72.0981 209.644 74.3054 205.871 78.7177L204.894 79.8584C203.823 81.1117 203.286 81.7394 203.045 82.5134C202.804 83.2897 202.885 84.1267 203.047 85.7985L203.196 87.3217C203.765 93.21 204.051 96.153 202.327 97.4603C200.604 98.7675 198.011 97.575 192.832 95.19L191.489 94.5735C190.017 93.894 189.281 93.5565 188.501 93.5565C187.72 93.5565 186.984 93.894 185.513 94.5735L184.172 95.19C178.99 97.575 176.398 98.7675 174.677 97.4625C172.951 96.153 173.237 93.21 173.806 87.3217L173.954 85.8007C174.116 84.1267 174.197 83.2897 173.954 82.5157C173.716 81.7394 173.178 81.1117 172.107 79.8607L171.131 78.7177C167.357 74.3076 165.472 72.1004 166.129 69.9831C166.786 67.8658 169.556 67.2381 175.091 65.9871L176.522 65.6631C178.094 65.3076 178.88 65.1298 179.512 64.6506C180.144 64.1713 180.547 63.4446 181.357 61.9911L182.095 60.668Z" fill="#FCC21B"/>
</mask>
<g mask="url(#mask1_491_982)">
<path d="M127.094 60.6679C129.945 55.5561 131.369 53.0001 133.5 53.0001C135.631 53.0001 137.055 55.5561 139.906 60.6679L140.644 61.9909C141.454 63.4444 141.859 64.1711 142.489 64.6503C143.119 65.1296 143.906 65.3073 145.481 65.6628L146.912 65.9868C152.447 67.24 155.212 67.8655 155.871 69.9827C156.528 72.0977 154.643 74.3049 150.87 78.717L149.893 79.8577C148.822 81.111 148.284 81.7387 148.044 82.5127C147.803 83.2889 147.884 84.1259 148.046 85.7976L148.194 87.3208C148.764 93.2089 149.049 96.1519 147.326 97.4591C145.602 98.7663 143.011 97.5738 137.831 95.1889L136.488 94.5724C135.016 93.8929 134.281 93.5554 133.5 93.5554C132.719 93.5554 131.984 93.8929 130.512 94.5724L129.171 95.1889C123.989 97.5738 121.398 98.7663 119.676 97.4613C117.951 96.1519 118.236 93.2089 118.806 87.3208L118.954 85.7998C119.116 84.1259 119.197 83.2889 118.954 82.5149C118.716 81.7387 118.178 81.111 117.107 79.86L116.13 78.717C112.357 74.3071 110.472 72.0999 111.129 69.9827C111.786 67.8655 114.555 67.2378 120.09 65.9868L121.521 65.6628C123.094 65.3073 123.879 65.1296 124.511 64.6503C125.144 64.1711 125.546 63.4444 126.356 61.9909L127.094 60.6679Z" fill="#FCC21B"/>
<path d="M182.095 60.668C184.946 55.556 186.37 53 188.501 53C190.631 53 192.056 55.556 194.906 60.668L195.644 61.9911C196.454 63.4446 196.859 64.1713 197.489 64.6506C198.119 65.1298 198.907 65.3076 200.482 65.6631L201.913 65.9871C207.448 67.2403 210.213 67.8658 210.873 69.9831C211.53 72.0981 209.644 74.3054 205.871 78.7177L204.894 79.8584C203.823 81.1117 203.286 81.7394 203.045 82.5134C202.804 83.2897 202.885 84.1267 203.047 85.7985L203.196 87.3217C203.765 93.21 204.051 96.153 202.327 97.4603C200.604 98.7675 198.011 97.575 192.832 95.19L191.489 94.5735C190.017 93.894 189.281 93.5565 188.501 93.5565C187.72 93.5565 186.984 93.894 185.513 94.5735L184.172 95.19C178.99 97.575 176.398 98.7675 174.677 97.4625C172.951 96.153 173.237 93.21 173.806 87.3217L173.954 85.8007C174.116 84.1267 174.197 83.2897 173.954 82.5157C173.716 81.7394 173.178 81.1117 172.107 79.8607L171.131 78.7177C167.357 74.3076 165.472 72.1004 166.129 69.9831C166.786 67.8658 169.556 67.2381 175.091 65.9871L176.522 65.6631C178.094 65.3076 178.88 65.1298 179.512 64.6506C180.144 64.1713 180.547 63.4446 181.357 61.9911L182.095 60.668Z" fill="#FCC21B"/>
<rect opacity="0.5" x="187.527" y="43.86" width="20" height="58.75" transform="rotate(17 187.527 43.86)" fill="#FCFCFC"/>
<rect opacity="0.5" x="136.927" y="41.75" width="20" height="58.75" transform="rotate(17 136.927 41.75)" fill="#FCFCFC"/>
</g>
</g>
<path d="M181.5 143C202.992 131.989 212.264 121.844 223 95.5V143H181.5Z" fill="#03866D"/>
</g>
<path d="M102 92.5C102 59.0868 129.087 32 162.5 32C195.913 32 223 59.0868 223 92.5V141H102V92.5Z" stroke="#12544B" stroke-width="4"/>
<path d="M24.5983 33.6C24.5983 32.144 24.8063 30.88 25.2223 29.808C25.6383 28.72 26.2143 27.824 26.9503 27.12C27.6863 26.4 28.5583 25.872 29.5663 25.536C30.5743 25.184 31.6623 25.016 32.8303 25.032C33.8063 25.048 34.7263 25.176 35.5903 25.416C36.4543 25.656 37.2303 26.024 37.9183 26.52C38.6223 27 39.2223 27.608 39.7183 28.344C40.2143 29.08 40.5823 29.944 40.8223 30.936L38.6623 31.608C38.4703 30.92 38.1663 30.304 37.7503 29.76C37.3343 29.216 36.8543 28.76 36.3103 28.392C35.7823 28.024 35.2143 27.744 34.6063 27.552C33.9983 27.344 33.4063 27.24 32.8303 27.24C32.0783 27.24 31.3423 27.376 30.6223 27.648C29.9183 27.92 29.2943 28.328 28.7503 28.872C28.2063 29.4 27.7663 30.064 27.4303 30.864C27.1103 31.648 26.9503 32.56 26.9503 33.6C26.9503 34.608 27.0943 35.512 27.3823 36.312C27.6863 37.096 28.0863 37.76 28.5823 38.304C29.0943 38.848 29.6943 39.264 30.3823 39.552C31.0703 39.824 31.8063 39.96 32.5903 39.96C33.2623 39.96 33.8463 39.792 34.3423 39.456C34.8543 39.12 35.2783 38.712 35.6143 38.232C35.9663 37.736 36.2303 37.216 36.4063 36.672C36.5983 36.112 36.7103 35.608 36.7423 35.16H34.2463V33.264H39.4303C40.0063 33.264 40.4223 33.416 40.6783 33.72C40.9343 34.008 41.0623 34.408 41.0623 34.92V42H38.7583V35.16L38.2303 35.184C38.1983 36.416 38.0303 37.472 37.7263 38.352C37.4223 39.232 37.0063 39.96 36.4783 40.536C35.9663 41.096 35.3583 41.512 34.6543 41.784C33.9663 42.04 33.2063 42.168 32.3743 42.168C31.2063 42.168 30.1423 41.992 29.1823 41.64C28.2383 41.288 27.4223 40.76 26.7343 40.056C26.0623 39.352 25.5343 38.464 25.1503 37.392C24.7823 36.32 24.5983 35.056 24.5983 33.6ZM42.3216 33.216C42.3216 32.128 42.5776 31.32 43.0896 30.792C43.6016 30.264 44.4096 30 45.5136 30H50.3376V32.208L46.2816 32.232C45.9456 32.232 45.6736 32.248 45.4656 32.28C45.2576 32.312 45.0896 32.392 44.9616 32.52C44.8496 32.632 44.7696 32.808 44.7216 33.048C44.6896 33.288 44.6736 33.616 44.6736 34.032V42H42.3216V33.216ZM56.9087 42.144C56.0287 42.144 55.1887 42.024 54.3887 41.784C53.5887 41.528 52.8847 41.144 52.2767 40.632C51.6847 40.12 51.2127 39.48 50.8607 38.712C50.5087 37.944 50.3327 37.04 50.3327 36C50.3327 34.96 50.5087 34.056 50.8607 33.288C51.2127 32.52 51.6847 31.88 52.2767 31.368C52.8847 30.856 53.5887 30.48 54.3887 30.24C55.1887 29.984 56.0287 29.856 56.9087 29.856C57.7887 29.856 58.6127 29.984 59.3807 30.24C60.1647 30.496 60.8447 30.88 61.4207 31.392C61.9967 31.888 62.4527 32.52 62.7887 33.288C63.1247 34.056 63.2927 34.96 63.2927 36C63.2927 36.176 63.2927 36.296 63.2927 36.36C63.2927 36.408 63.2767 36.512 63.2447 36.672H52.7807C52.9567 37.872 53.4207 38.768 54.1727 39.36C54.9247 39.952 55.8527 40.24 56.9567 40.224C57.8847 40.208 58.6927 40.032 59.3807 39.696C60.0847 39.36 60.6047 38.744 60.9407 37.848L63.1007 38.136C62.8767 38.856 62.5567 39.472 62.1407 39.984C61.7407 40.496 61.2687 40.912 60.7247 41.232C60.1807 41.536 59.5807 41.768 58.9247 41.928C58.2847 42.072 57.6127 42.144 56.9087 42.144ZM56.9567 31.704C56.4287 31.704 55.9007 31.808 55.3727 32.016C54.8447 32.208 54.3807 32.512 53.9807 32.928C53.5807 33.328 53.2607 33.84 53.0207 34.464C52.7967 35.088 52.7167 35.824 52.7807 36.672C52.8767 36.352 52.9807 36.096 53.0927 35.904C53.2207 35.712 53.3647 35.568 53.5247 35.472C53.7007 35.376 53.8927 35.312 54.1007 35.28C54.3247 35.248 54.5807 35.232 54.8687 35.232H61.0607C60.8847 34 60.4287 33.112 59.6927 32.568C58.9727 32.008 58.0607 31.72 56.9567 31.704ZM74.0644 39.048C73.9044 39.544 73.6564 39.976 73.3204 40.344C72.9844 40.712 72.5924 41.016 72.1444 41.256C71.7124 41.496 71.2404 41.68 70.7284 41.808C70.2164 41.92 69.7044 41.976 69.1924 41.976C68.6004 41.976 68.0244 41.904 67.4644 41.76C66.9044 41.616 66.4084 41.4 65.9764 41.112C65.5444 40.824 65.1924 40.472 64.9204 40.056C64.6644 39.624 64.5364 39.136 64.5364 38.592C64.5364 37.712 64.7684 37.048 65.2324 36.6C65.7124 36.136 66.3044 35.8 67.0084 35.592C67.7284 35.384 68.4964 35.272 69.3124 35.256C70.1444 35.224 70.9124 35.2 71.6164 35.184C72.3364 35.152 72.9284 35.088 73.3924 34.992C73.8564 34.896 74.0804 34.68 74.0644 34.344C74.0324 33.432 73.7204 32.784 73.1284 32.4C72.5524 32.016 71.6884 31.824 70.5364 31.824C70.0724 31.824 69.6324 31.856 69.2164 31.92C68.8164 31.984 68.4564 32.104 68.1364 32.28C67.8324 32.456 67.5764 32.696 67.3684 33C67.1604 33.304 67.0244 33.696 66.9604 34.176L64.8964 33.888C64.9764 33.168 65.1924 32.552 65.5444 32.04C65.8964 31.528 66.3364 31.12 66.8644 30.816C67.3924 30.496 67.9764 30.272 68.6164 30.144C69.2564 30 69.8964 29.928 70.5364 29.928C71.2564 29.928 71.9604 30.008 72.6484 30.168C73.3524 30.328 73.9764 30.592 74.5204 30.96C75.0644 31.312 75.4964 31.792 75.8164 32.4C76.1524 32.992 76.3204 33.736 76.3204 34.632V39C76.3204 39.32 76.3764 39.528 76.4884 39.624C76.6004 39.72 76.7844 39.768 77.0404 39.768H77.5924V42H76.0564C75.4484 42 74.9604 41.816 74.5924 41.448C74.2404 41.08 74.0644 40.632 74.0644 40.104V39.048ZM66.8404 38.544C66.8404 38.864 66.9204 39.144 67.0804 39.384C67.2404 39.608 67.4484 39.8 67.7044 39.96C67.9764 40.104 68.2884 40.216 68.6404 40.296C69.0084 40.36 69.3844 40.392 69.7684 40.392C70.2644 40.392 70.7684 40.336 71.2804 40.224C71.7924 40.096 72.2484 39.92 72.6484 39.696C73.0644 39.472 73.4004 39.2 73.6564 38.88C73.9284 38.544 74.0644 38.168 74.0644 37.752V36.168C73.7284 36.36 73.3124 36.488 72.8164 36.552C72.3204 36.616 71.8004 36.656 71.2564 36.672C70.7284 36.688 70.2004 36.704 69.6724 36.72C69.1444 36.736 68.6724 36.8 68.2564 36.912C67.8404 37.024 67.4964 37.208 67.2244 37.464C66.9684 37.704 66.8404 38.064 66.8404 38.544ZM78.4509 32.112V29.904H78.9069C79.1789 29.904 79.4589 29.792 79.7469 29.568C80.0509 29.344 80.3229 29.056 80.5629 28.704C80.8029 28.352 81.0029 27.96 81.1629 27.528C81.3229 27.096 81.4029 26.672 81.4029 26.256L83.7789 26.232C83.7469 26.904 83.5869 27.544 83.2989 28.152C83.0109 28.744 82.5869 29.224 82.0269 29.592C81.8189 29.72 81.5629 29.816 81.2589 29.88C80.9709 29.928 80.7069 29.976 80.4669 30.024V30.072C80.7069 30.024 80.9709 29.984 81.2589 29.952C81.5629 29.92 81.8349 29.904 82.0749 29.904H86.3229V32.112H83.2749V38.496C83.2749 39.024 83.4029 39.376 83.6589 39.552C83.9149 39.712 84.2269 39.792 84.5949 39.792H86.8989V42H84.7149C83.9309 42 83.2909 41.928 82.7949 41.784C82.2989 41.624 81.9149 41.384 81.6429 41.064C81.3709 40.744 81.1789 40.336 81.0669 39.84C80.9709 39.328 80.9229 38.728 80.9229 38.04V32.112H78.4509Z" fill="black"/>
</g>
<rect x="0.5" y="0.5" width="223" height="139" rx="15.5" stroke="black" stroke-opacity="0.14"/>
<defs>
<filter id="filter0_i_491_982" x="111" y="53" width="100.001" height="45" filterUnits="userSpaceOnUse" color-interpolation-filters="sRGB">
<feFlood flood-opacity="0" result="BackgroundImageFix"/>
<feBlend mode="normal" in="SourceGraphic" in2="BackgroundImageFix" result="shape"/>
<feColorMatrix in="SourceAlpha" type="matrix" values="0 0 0 0 0 0 0 0 0 0 0 0 0 0 0 0 0 0 127 0" result="hardAlpha"/>
<feOffset dx="-2.5" dy="-2.5"/>
<feComposite in2="hardAlpha" operator="arithmetic" k2="-1" k3="1"/>
<feColorMatrix type="matrix" values="0 0 0 0 0.996078 0 0 0 0 0.419608 0 0 0 0 0.0117647 0 0 0 1 0"/>
<feBlend mode="normal" in2="shape" result="effect1_innerShadow_491_982"/>
</filter>
<clipPath id="clip0_491_982">
<rect width="224" height="140" rx="16" fill="white"/>
</clipPath>
<clipPath id="clip1_491_982">
<path d="M102 92.5C102 59.0868 129.087 32 162.5 32C195.913 32 223 59.0868 223 92.5V141H102V92.5Z" fill="white"/>
</clipPath>
</defs>
</svg>
