<svg width="224" height="140" viewBox="0 0 224 140" fill="none" xmlns="http://www.w3.org/2000/svg">
<g clip-path="url(#clip0_685_56)">
<rect width="224" height="140" rx="16" fill="#CAF1F5"/>
<path d="M174 47C105.517 47 50 79.6832 50 120C50 130.888 54.0489 141.219 61.3086 150.5H232.5V55.6183C215.074 50.1189 195.155 47 174 47Z" fill="#A2E8EF"/>
<path d="M26.9894 36.864C27.0694 37.824 27.5094 38.568 28.3094 39.096C29.1254 39.624 30.2134 39.896 31.5734 39.912C33.0934 39.912 34.2694 39.648 35.1014 39.12C35.9494 38.592 36.3734 37.816 36.3734 36.792C36.3734 36.296 36.2054 35.904 35.8694 35.616C35.5494 35.328 35.1174 35.096 34.5734 34.92C34.0454 34.728 33.4374 34.584 32.7494 34.488C32.0774 34.376 31.3814 34.264 30.6614 34.152C29.9574 34.024 29.2614 33.88 28.5734 33.72C27.9014 33.544 27.2934 33.304 26.7494 33C26.2214 32.696 25.7894 32.304 25.4534 31.824C25.1334 31.328 24.9734 30.712 24.9734 29.976C24.9734 29.128 25.1414 28.392 25.4774 27.768C25.8294 27.128 26.3094 26.6 26.9174 26.184C27.5254 25.768 28.2374 25.456 29.0534 25.248C29.8694 25.04 30.7414 24.944 31.6694 24.96C32.5334 24.976 33.3334 25.08 34.0694 25.272C34.8214 25.464 35.4774 25.752 36.0374 26.136C36.6134 26.504 37.0774 26.968 37.4294 27.528C37.7814 28.088 37.9894 28.744 38.0534 29.496L35.7974 29.808C35.7174 28.976 35.3574 28.328 34.7174 27.864C34.0774 27.4 33.0614 27.168 31.6694 27.168C30.2934 27.168 29.2214 27.416 28.4534 27.912C27.7014 28.392 27.3254 29.08 27.3254 29.976C27.3254 30.424 27.4854 30.776 27.8054 31.032C28.1414 31.272 28.5734 31.472 29.1014 31.632C29.6454 31.776 30.2534 31.896 30.9254 31.992C31.6134 32.088 32.3094 32.192 33.0134 32.304C33.7334 32.416 34.4294 32.56 35.1014 32.736C35.7894 32.912 36.3974 33.168 36.9254 33.504C37.4694 33.824 37.9014 34.24 38.2214 34.752C38.5574 35.264 38.7254 35.92 38.7254 36.72C38.7254 37.296 38.6214 37.904 38.4134 38.544C38.2214 39.168 37.8534 39.752 37.3094 40.296C36.7814 40.824 36.0534 41.264 35.1254 41.616C34.2134 41.952 33.0374 42.12 31.5974 42.12C30.2694 42.12 29.1734 41.976 28.3094 41.688C27.4454 41.4 26.7494 41.024 26.2214 40.56C25.7094 40.08 25.3414 39.544 25.1174 38.952C24.8934 38.36 24.7574 37.76 24.7094 37.152L26.9894 36.864ZM49.1659 39.048C49.0059 39.544 48.7579 39.976 48.4219 40.344C48.0859 40.712 47.6939 41.016 47.2459 41.256C46.8139 41.496 46.3419 41.68 45.8299 41.808C45.3179 41.92 44.8059 41.976 44.2939 41.976C43.7019 41.976 43.1259 41.904 42.5659 41.76C42.0059 41.616 41.5099 41.4 41.0779 41.112C40.6459 40.824 40.2939 40.472 40.0219 40.056C39.7659 39.624 39.6379 39.136 39.6379 38.592C39.6379 37.712 39.8699 37.048 40.3339 36.6C40.8139 36.136 41.4059 35.8 42.1099 35.592C42.8299 35.384 43.5979 35.272 44.4139 35.256C45.2459 35.224 46.0139 35.2 46.7179 35.184C47.4379 35.152 48.0299 35.088 48.4939 34.992C48.9579 34.896 49.1819 34.68 49.1659 34.344C49.1339 33.432 48.8219 32.784 48.2299 32.4C47.6539 32.016 46.7899 31.824 45.6379 31.824C45.1739 31.824 44.7339 31.856 44.3179 31.92C43.9179 31.984 43.5579 32.104 43.2379 32.28C42.9339 32.456 42.6779 32.696 42.4699 33C42.2619 33.304 42.1259 33.696 42.0619 34.176L39.9979 33.888C40.0779 33.168 40.2939 32.552 40.6459 32.04C40.9979 31.528 41.4379 31.12 41.9659 30.816C42.4939 30.496 43.0779 30.272 43.7179 30.144C44.3579 30 44.9979 29.928 45.6379 29.928C46.3579 29.928 47.0619 30.008 47.7499 30.168C48.4539 30.328 49.0779 30.592 49.6219 30.96C50.1659 31.312 50.5979 31.792 50.9179 32.4C51.2539 32.992 51.4219 33.736 51.4219 34.632V39C51.4219 39.32 51.4779 39.528 51.5899 39.624C51.7019 39.72 51.8859 39.768 52.1419 39.768H52.6939V42H51.1579C50.5499 42 50.0619 41.816 49.6939 41.448C49.3419 41.08 49.1659 40.632 49.1659 40.104V39.048ZM41.9419 38.544C41.9419 38.864 42.0219 39.144 42.1819 39.384C42.3419 39.608 42.5499 39.8 42.8059 39.96C43.0779 40.104 43.3899 40.216 43.7419 40.296C44.1099 40.36 44.4859 40.392 44.8699 40.392C45.3659 40.392 45.8699 40.336 46.3819 40.224C46.8939 40.096 47.3499 39.92 47.7499 39.696C48.1659 39.472 48.5019 39.2 48.7579 38.88C49.0299 38.544 49.1659 38.168 49.1659 37.752V36.168C48.8299 36.36 48.4139 36.488 47.9179 36.552C47.4219 36.616 46.9019 36.656 46.3579 36.672C45.8299 36.688 45.3019 36.704 44.7739 36.72C44.2459 36.736 43.7739 36.8 43.3579 36.912C42.9419 37.024 42.5979 37.208 42.3259 37.464C42.0699 37.704 41.9419 38.064 41.9419 38.544ZM53.8885 36C53.8885 33.92 54.3925 32.384 55.4005 31.392C56.4085 30.384 57.8085 29.872 59.6005 29.856C60.0005 29.856 60.4165 29.904 60.8485 30C61.2805 30.08 61.7045 30.208 62.1205 30.384C62.5365 30.544 62.9285 30.744 63.2965 30.984C63.6805 31.208 64.0085 31.464 64.2805 31.752C64.4725 31.944 64.6325 32.192 64.7605 32.496C64.9045 32.8 65.0165 33.08 65.0965 33.336H65.1445C65.0645 33.064 64.9925 32.768 64.9285 32.448C64.8645 32.128 64.8325 31.832 64.8325 31.56V25.2H67.1845V42H64.8325V40.536C64.8325 40.264 64.8645 39.968 64.9285 39.648C64.9925 39.328 65.0645 39.04 65.1445 38.784L65.0965 38.76C65.0165 39.016 64.9045 39.296 64.7605 39.6C64.6325 39.904 64.4725 40.152 64.2805 40.344C63.9925 40.632 63.6645 40.888 63.2965 41.112C62.9285 41.32 62.5365 41.504 62.1205 41.664C61.7045 41.824 61.2805 41.944 60.8485 42.024C60.4165 42.104 60.0005 42.144 59.6005 42.144C57.8085 42.144 56.4085 41.64 55.4005 40.632C54.3925 39.624 53.8885 38.08 53.8885 36ZM60.3685 31.8C58.8965 31.816 57.8405 32.168 57.2005 32.856C56.5605 33.528 56.2405 34.576 56.2405 36C56.2405 37.424 56.5605 38.472 57.2005 39.144C57.8565 39.8 58.9125 40.128 60.3685 40.128C60.8965 40.128 61.4245 40.04 61.9525 39.864C62.4965 39.672 62.9765 39.4 63.3925 39.048C63.8245 38.68 64.1685 38.24 64.4245 37.728C64.6965 37.216 64.8325 36.64 64.8325 36C64.8325 35.344 64.6965 34.76 64.4245 34.248C64.1685 33.72 63.8245 33.28 63.3925 32.928C62.9765 32.56 62.4965 32.28 61.9525 32.088C61.4245 31.896 60.8965 31.8 60.3685 31.8Z" fill="black"/>
<g clip-path="url(#clip1_685_56)">
<path d="M102 92.5C102 59.0868 129.087 32 162.5 32C195.913 32 223 59.0868 223 92.5V141H102V92.5Z" fill="#00A384"/>
<path d="M181.5 143C202.992 131.989 212.264 121.844 223 95.5V143H181.5Z" fill="#03866D"/>
<path d="M119.05 69.9705H150.05V86.1121C150.05 88.243 148.323 89.9705 146.192 89.9705H122.909C120.778 89.9705 119.05 88.243 119.05 86.1121V69.9705Z" fill="#FCFCFC"/>
<path d="M175.05 69.9705H205.05V86.1121C205.05 88.243 203.323 89.9705 201.192 89.9705H178.909C176.778 89.9705 175.05 88.243 175.05 86.1121V69.9705Z" fill="#FCFCFC"/>
<circle cx="134.077" cy="80.0737" r="7.07371" fill="#111111"/>
<circle cx="189.702" cy="80.0737" r="7.07371" fill="#111111"/>
<path d="M117 68.5776C128.367 69.4315 136.232 69.0321 150 67" stroke="#111111" stroke-width="5.14452" stroke-linecap="round"/>
<path d="M206 68.5776C194.633 69.4315 186.768 69.0321 173 67" stroke="#111111" stroke-width="5.14452" stroke-linecap="round"/>
<path d="M154.859 110.38C159.949 106.769 163.817 105.342 171.125 109.698C171.395 109.859 171.29 110.267 170.976 110.28L155.057 110.955C154.739 110.969 154.6 110.564 154.859 110.38Z" stroke="#00826A" stroke-width="4.50145" stroke-linecap="round"/>
<path d="M204 90C193.507 88.7055 187.264 88.6588 176 89.9124" stroke="#00826A" stroke-width="3.22" stroke-linecap="round"/>
<path d="M148 90C137.507 88.7055 131.264 88.6588 120 89.9124" stroke="#00826A" stroke-width="3.22" stroke-linecap="round"/>
</g>
<path d="M102 92.5C102 59.0868 129.087 32 162.5 32C195.913 32 223 59.0868 223 92.5V141H102V92.5Z" stroke="#12544B" stroke-width="4"/>
</g>
<rect x="0.5" y="0.5" width="223" height="139" rx="15.5" stroke="black" stroke-opacity="0.14"/>
<defs>
<clipPath id="clip0_685_56">
<rect width="224" height="140" rx="16" fill="white"/>
</clipPath>
<clipPath id="clip1_685_56">
<path d="M102 92.5C102 59.0868 129.087 32 162.5 32C195.913 32 223 59.0868 223 92.5V141H102V92.5Z" fill="white"/>
</clipPath>
</defs>
</svg>
