<svg width="224" height="140" viewBox="0 0 224 140" fill="none" xmlns="http://www.w3.org/2000/svg">
<g clip-path="url(#clip0_491_998)">
<rect width="224" height="140" rx="16" fill="#CAF1F5"/>
<path d="M174 47C105.517 47 50 79.6832 50 120C50 130.888 54.0489 141.219 61.3086 150.5H232.5V55.6183C215.074 50.1189 195.155 47 174 47Z" fill="#A2E8EF"/>
<path d="M24.8874 33.6C24.8874 32.144 25.0954 30.88 25.5114 29.808C25.9274 28.72 26.5034 27.824 27.2394 27.12C27.9754 26.4 28.8474 25.872 29.8554 25.536C30.8634 25.184 31.9514 25.016 33.1194 25.032C34.0954 25.048 35.0154 25.176 35.8794 25.416C36.7434 25.656 37.5194 26.024 38.2074 26.52C38.9114 27 39.5114 27.608 40.0074 28.344C40.5034 29.08 40.8714 29.944 41.1114 30.936L38.9514 31.608C38.7594 30.92 38.4554 30.304 38.0394 29.76C37.6234 29.216 37.1434 28.76 36.5994 28.392C36.0714 28.024 35.5034 27.744 34.8954 27.552C34.2874 27.344 33.6954 27.24 33.1194 27.24C32.3674 27.24 31.6314 27.376 30.9114 27.648C30.2074 27.92 29.5834 28.328 29.0394 28.872C28.4954 29.4 28.0554 30.064 27.7194 30.864C27.3994 31.648 27.2394 32.56 27.2394 33.6C27.2394 34.608 27.3834 35.512 27.6714 36.312C27.9754 37.096 28.3754 37.76 28.8714 38.304C29.3834 38.848 29.9834 39.264 30.6714 39.552C31.3594 39.824 32.0954 39.96 32.8794 39.96C33.5514 39.96 34.1354 39.792 34.6314 39.456C35.1434 39.12 35.5674 38.712 35.9034 38.232C36.2554 37.736 36.5194 37.216 36.6954 36.672C36.8874 36.112 36.9994 35.608 37.0314 35.16H34.5354V33.264H39.7194C40.2954 33.264 40.7114 33.416 40.9674 33.72C41.2234 34.008 41.3514 34.408 41.3514 34.92V42H39.0474V35.16L38.5194 35.184C38.4874 36.416 38.3194 37.472 38.0154 38.352C37.7114 39.232 37.2954 39.96 36.7674 40.536C36.2554 41.096 35.6474 41.512 34.9434 41.784C34.2554 42.04 33.4954 42.168 32.6634 42.168C31.4954 42.168 30.4314 41.992 29.4714 41.64C28.5274 41.288 27.7114 40.76 27.0234 40.056C26.3514 39.352 25.8234 38.464 25.4394 37.392C25.0714 36.32 24.8874 35.056 24.8874 33.6ZM49.0426 42.144C48.1626 42.144 47.3146 42.024 46.4986 41.784C45.6986 41.528 44.9946 41.144 44.3866 40.632C43.7946 40.12 43.3146 39.48 42.9466 38.712C42.5946 37.944 42.4186 37.04 42.4186 36C42.4186 34.96 42.5946 34.056 42.9466 33.288C43.3146 32.52 43.7946 31.88 44.3866 31.368C44.9946 30.856 45.6986 30.48 46.4986 30.24C47.3146 29.984 48.1626 29.856 49.0426 29.856C49.9386 29.856 50.7866 29.984 51.5866 30.24C52.3866 30.496 53.0906 30.88 53.6986 31.392C54.3066 31.888 54.7866 32.52 55.1386 33.288C55.5066 34.056 55.6906 34.96 55.6906 36C55.6906 37.04 55.5066 37.944 55.1386 38.712C54.7866 39.48 54.3066 40.12 53.6986 40.632C53.0906 41.144 52.3866 41.528 51.5866 41.784C50.7866 42.024 49.9386 42.144 49.0426 42.144ZM49.0426 31.848C48.4986 31.848 47.9626 31.936 47.4346 32.112C46.9226 32.288 46.4666 32.552 46.0666 32.904C45.6826 33.256 45.3706 33.696 45.1306 34.224C44.8906 34.736 44.7706 35.328 44.7706 36C44.7706 36.704 44.8826 37.32 45.1066 37.848C45.3306 38.36 45.6346 38.784 46.0186 39.12C46.4026 39.456 46.8506 39.712 47.3626 39.888C47.8906 40.048 48.4506 40.128 49.0426 40.128C49.6186 40.128 50.1626 40.048 50.6746 39.888C51.2026 39.712 51.6586 39.456 52.0426 39.12C52.4426 38.768 52.7546 38.336 52.9786 37.824C53.2186 37.296 53.3386 36.688 53.3386 36C53.3386 35.328 53.2186 34.736 52.9786 34.224C52.7546 33.696 52.4426 33.264 52.0426 32.928C51.6426 32.576 51.1866 32.312 50.6746 32.136C50.1626 31.944 49.6186 31.848 49.0426 31.848ZM63.1286 42.144C62.2486 42.144 61.4006 42.024 60.5846 41.784C59.7846 41.528 59.0806 41.144 58.4726 40.632C57.8806 40.12 57.4006 39.48 57.0326 38.712C56.6806 37.944 56.5046 37.04 56.5046 36C56.5046 34.96 56.6806 34.056 57.0326 33.288C57.4006 32.52 57.8806 31.88 58.4726 31.368C59.0806 30.856 59.7846 30.48 60.5846 30.24C61.4006 29.984 62.2486 29.856 63.1286 29.856C64.0246 29.856 64.8726 29.984 65.6726 30.24C66.4726 30.496 67.1766 30.88 67.7846 31.392C68.3926 31.888 68.8726 32.52 69.2246 33.288C69.5926 34.056 69.7766 34.96 69.7766 36C69.7766 37.04 69.5926 37.944 69.2246 38.712C68.8726 39.48 68.3926 40.12 67.7846 40.632C67.1766 41.144 66.4726 41.528 65.6726 41.784C64.8726 42.024 64.0246 42.144 63.1286 42.144ZM63.1286 31.848C62.5846 31.848 62.0486 31.936 61.5206 32.112C61.0086 32.288 60.5526 32.552 60.1526 32.904C59.7686 33.256 59.4566 33.696 59.2166 34.224C58.9766 34.736 58.8566 35.328 58.8566 36C58.8566 36.704 58.9686 37.32 59.1926 37.848C59.4166 38.36 59.7206 38.784 60.1046 39.12C60.4886 39.456 60.9366 39.712 61.4486 39.888C61.9766 40.048 62.5366 40.128 63.1286 40.128C63.7046 40.128 64.2486 40.048 64.7606 39.888C65.2886 39.712 65.7446 39.456 66.1286 39.12C66.5286 38.768 66.8406 38.336 67.0646 37.824C67.3046 37.296 67.4246 36.688 67.4246 36C67.4246 35.328 67.3046 34.736 67.0646 34.224C66.8406 33.696 66.5286 33.264 66.1286 32.928C65.7286 32.576 65.2726 32.312 64.7606 32.136C64.2486 31.944 63.7046 31.848 63.1286 31.848ZM70.6385 36C70.6385 33.92 71.1425 32.384 72.1505 31.392C73.1585 30.384 74.5585 29.872 76.3505 29.856C76.7505 29.856 77.1665 29.904 77.5985 30C78.0305 30.08 78.4545 30.208 78.8705 30.384C79.2865 30.544 79.6785 30.744 80.0465 30.984C80.4305 31.208 80.7585 31.464 81.0305 31.752C81.2225 31.944 81.3825 32.192 81.5105 32.496C81.6545 32.8 81.7665 33.08 81.8465 33.336H81.8945C81.8145 33.064 81.7425 32.768 81.6785 32.448C81.6145 32.128 81.5825 31.832 81.5825 31.56V25.2H83.9345V42H81.5825V40.536C81.5825 40.264 81.6145 39.968 81.6785 39.648C81.7425 39.328 81.8145 39.04 81.8945 38.784L81.8465 38.76C81.7665 39.016 81.6545 39.296 81.5105 39.6C81.3825 39.904 81.2225 40.152 81.0305 40.344C80.7425 40.632 80.4145 40.888 80.0465 41.112C79.6785 41.32 79.2865 41.504 78.8705 41.664C78.4545 41.824 78.0305 41.944 77.5985 42.024C77.1665 42.104 76.7505 42.144 76.3505 42.144C74.5585 42.144 73.1585 41.64 72.1505 40.632C71.1425 39.624 70.6385 38.08 70.6385 36ZM77.1185 31.8C75.6465 31.816 74.5905 32.168 73.9505 32.856C73.3105 33.528 72.9905 34.576 72.9905 36C72.9905 37.424 73.3105 38.472 73.9505 39.144C74.6065 39.8 75.6625 40.128 77.1185 40.128C77.6465 40.128 78.1745 40.04 78.7025 39.864C79.2465 39.672 79.7265 39.4 80.1425 39.048C80.5745 38.68 80.9185 38.24 81.1745 37.728C81.4465 37.216 81.5825 36.64 81.5825 36C81.5825 35.344 81.4465 34.76 81.1745 34.248C80.9185 33.72 80.5745 33.28 80.1425 32.928C79.7265 32.56 79.2465 32.28 78.7025 32.088C78.1745 31.896 77.6465 31.8 77.1185 31.8Z" fill="black"/>
<g clip-path="url(#clip1_491_998)">
<path d="M102 92.5C102 59.0868 129.087 32 162.5 32C195.913 32 223 59.0868 223 92.5V141H102V92.5Z" fill="#00A384"/>
<path d="M181.5 143C202.992 131.989 212.264 121.844 223 95.5V143H181.5Z" fill="#03866D"/>
<path d="M174 75C174 70.5817 177.582 67 182 67H197C201.418 67 205 70.5817 205 75V84.1416C205 86.2725 203.273 88 201.142 88H177.858C175.727 88 174 86.2725 174 84.1416V75Z" fill="#FCFCFC"/>
<path d="M206 68C193.634 65.411 186.276 65.3176 173 67.8247" stroke="#111111" stroke-width="5.14452" stroke-linecap="round"/>
<circle cx="188.074" cy="79.0737" r="7.07371" fill="#111111"/>
<path d="M203 89C192.507 87.7055 186.264 87.6588 175 88.9124" stroke="#00826A" stroke-width="3.22" stroke-linecap="round"/>
<path d="M121 75C121 70.5817 124.582 67 129 67H144C148.418 67 152 70.5817 152 75V84.1416C152 86.2725 150.273 88 148.142 88H124.858C122.727 88 121 86.2725 121 84.1416V75Z" fill="#FCFCFC"/>
<path d="M120 68C132.366 65.411 139.724 65.3176 153 67.8247" stroke="#111111" stroke-width="5.14452" stroke-linecap="round"/>
<circle cx="137.074" cy="79.0737" r="7.07371" fill="#111111"/>
<path d="M151 89C140.507 87.7055 134.264 87.6588 123 88.9124" stroke="#00826A" stroke-width="3.22" stroke-linecap="round"/>
<path d="M176.328 102H149.653C148.771 102 148.076 102.778 148.31 103.628C151.531 115.297 174.238 114.27 177.643 103.635C177.914 102.789 177.217 102 176.328 102Z" fill="#FCFCFC"/>
</g>
<path d="M102 92.5C102 59.0868 129.087 32 162.5 32C195.913 32 223 59.0868 223 92.5V141H102V92.5Z" stroke="#12544B" stroke-width="4"/>
</g>
<rect x="0.5" y="0.5" width="223" height="139" rx="15.5" stroke="black" stroke-opacity="0.14"/>
<defs>
<clipPath id="clip0_491_998">
<rect width="224" height="140" rx="16" fill="white"/>
</clipPath>
<clipPath id="clip1_491_998">
<path d="M102 92.5C102 59.0868 129.087 32 162.5 32C195.913 32 223 59.0868 223 92.5V141H102V92.5Z" fill="white"/>
</clipPath>
</defs>
</svg>
