<svg width="603" height="167" viewBox="0 0 603 167" fill="none" xmlns="http://www.w3.org/2000/svg">
<path fill-rule="evenodd" clip-rule="evenodd" d="M532.023 59.2614C533.811 58.5148 535.685 58.3634 537.57 58.8152L539.705 59.327L541.844 59.8432C543.052 60.1325 544.264 60.2336 545.488 60.1538L547.667 60.0138L549.841 59.8695C551.62 59.7534 553.349 60.0221 555.004 60.6744L559.042 62.2669C560.574 62.8714 562 63.6715 563.311 64.6599L566.759 67.2585C567.908 68.1246 569.062 68.9943 570.219 69.8659L573.693 72.482C574.23 72.8867 574.656 73.1733 574.979 73.3613C575.14 73.4548 575.253 73.5057 575.32 73.5363L575.447 71.8389L575.605 69.6909C575.699 68.4178 575.942 67.1823 576.453 66.1298L576.523 63.5049H578.186L578.378 63.2249C579.411 61.7341 581.16 61.1461 582.819 60.9282L584.967 60.6438L587.119 60.3638C588.807 60.1421 590.494 60.211 592.172 60.5651L594.324 61.02L596.472 61.4706C597.469 61.6812 598.507 62.1195 599.277 62.9887C600.085 63.902 600.358 65.0198 600.305 66.0992L600.121 69.8396C600.065 70.9585 600.1 72.1856 600.235 73.5232L600.672 77.8236C600.835 79.4421 600.797 81.0644 600.558 82.6796L599.92 86.9801C599.74 88.1973 599.739 89.4116 599.915 90.6286L600.226 92.781L600.541 94.9291C600.753 96.3864 600.938 97.8463 601.101 99.3039L601.582 103.604C601.757 105.167 601.793 106.734 601.691 108.298L601.411 112.599C601.32 113.995 601.263 115.394 601.241 116.79L601.21 118.942L601.175 121.09C601.154 122.408 601.232 123.729 601.416 125.05L601.718 127.198L602.015 129.35C602.251 131.044 602.186 132.74 601.827 134.425L601.368 136.577L600.913 138.725C600.62 140.1 600.385 141.474 600.208 142.846L599.928 144.994L599.653 147.147C599.499 148.338 599.536 149.53 599.771 150.73L600.195 152.882L600.615 155.03C600.984 156.914 600.754 158.787 599.587 160.35L598.668 161.575V162.205H598.2L597.5 163.145C596.256 164.811 594.393 165.429 592.417 165.346L590.264 165.254L588.116 165.166C586.545 165.1 584.976 164.888 583.414 164.532L579.113 163.552C578.161 163.335 577.216 162.947 576.449 162.27C575.644 161.56 575.153 160.634 574.988 159.593L574.73 157.957L574.467 156.321C574.292 155.217 574.101 153.945 573.894 152.51L573.75 151.521C573.136 152.27 572.406 153.033 571.571 153.805L570.014 155.249L568.456 156.688C567.22 157.832 565.812 158.726 564.252 159.361L560.323 160.962C559.044 161.483 557.78 162.031 556.535 162.603L554.623 163.482L552.707 164.357C551.266 165.019 549.753 165.505 548.17 165.814L546.048 166.229L543.927 166.641C543.211 166.78 542.625 166.885 542.199 166.943C541.998 166.969 541.756 166.996 541.529 166.999C541.434 167.001 541.208 167.003 540.947 166.951C540.823 166.926 540.55 166.862 540.247 166.689C540.17 166.644 540.073 166.585 539.972 166.505C539.697 166.474 539.348 166.434 538.918 166.396L534.643 166.011C533.083 165.871 531.547 165.594 530.041 165.175L527.981 164.602L525.916 164.025C524.37 163.595 522.896 162.99 521.501 162.209L517.787 160.131C516.468 159.393 515.208 158.578 514.007 157.69L512.323 156.443L510.635 155.196C509.475 154.338 508.337 153.441 507.222 152.506L505.599 151.145L503.98 149.785C502.76 148.761 501.675 147.602 500.73 146.311L499.47 144.592L498.214 142.872C497.283 141.599 496.493 140.239 495.848 138.799L494.973 136.853L494.102 134.906C493.436 133.419 492.99 131.866 492.763 130.256L492.169 126.043C491.964 124.593 491.806 123.146 491.696 121.703L491.539 119.612L491.377 117.516C491.282 116.28 491.054 115.01 490.685 113.71L490.077 111.558L489.465 109.405C488.921 107.485 489.036 105.562 489.81 103.727L491.534 99.6407C492.074 98.3615 492.518 97.0952 492.868 95.8434L493.437 93.8222L494.002 91.8011C494.371 90.4812 494.726 89.1221 495.06 87.7282L496.084 83.4671C496.532 81.6035 497.487 80.0054 498.919 78.7336L500.551 77.2855L502.182 75.8331C503.136 74.9859 503.982 74.032 504.72 72.9676L507.235 69.3409C508.352 67.731 509.871 66.5978 511.733 65.9898L513.824 65.303L515.919 64.6205C517.348 64.1539 518.757 63.7336 520.145 63.3562L524.201 62.2537C525.454 61.913 526.713 61.4775 527.976 60.9501L532.023 59.2614ZM540.965 84.014C539.861 83.9237 538.787 84.0476 537.728 84.3858L535.72 85.0289L533.712 85.6676C532.658 86.0043 531.731 86.5264 530.912 87.2338L529.337 88.5944L527.757 89.9549C526.759 90.8176 525.77 91.7529 524.791 92.7592L521.729 95.909C520.981 96.6781 520.481 97.5673 520.215 98.6083L519.13 102.874C518.841 104.013 518.781 105.151 518.942 106.304L519.244 108.469L519.55 110.639C519.757 112.109 519.931 113.551 520.075 114.961L520.285 117.031L520.5 119.104C520.634 120.422 520.824 121.744 521.073 123.068L521.462 125.146L521.856 127.224C522.044 128.225 522.455 129.088 523.107 129.844L524.476 131.428L525.846 133.016C526.759 134.075 527.683 135.151 528.615 136.236L531.41 139.486C532.094 140.282 532.937 140.879 533.978 141.284L536.039 142.089L538.099 142.89C539.284 143.351 540.042 143.419 540.479 143.358L541.923 143.152L543.371 142.951C543.853 142.883 544.221 142.831 544.469 142.798C544.591 142.782 544.692 142.768 544.767 142.759C544.8 142.755 544.845 142.75 544.889 142.746C544.9 142.744 544.93 142.739 544.968 142.737C545.025 142.725 545.093 142.714 545.169 142.697C545.51 142.623 546.027 142.509 546.718 142.356L550.865 141.437C552.172 141.148 553.468 140.791 554.75 140.366L556.784 139.688L558.818 139.014C559.83 138.678 560.701 138.134 561.452 137.36L562.953 135.811L564.453 134.267C565.287 133.408 565.952 132.452 566.457 131.397L567.376 129.486L568.29 127.569C568.887 126.322 569.468 125.048 570.027 123.746L570.88 121.751L571.737 119.752C572.169 118.744 572.352 117.706 572.284 116.611L572.148 114.441L572.017 112.275C571.927 110.816 571.848 109.341 571.785 107.857L571.602 103.442C571.555 102.352 571.25 101.356 570.679 100.424L569.524 98.5383L568.369 96.6571C567.615 95.4286 566.832 94.2074 566.019 92.9998L564.773 91.1492L563.526 89.2943C562.923 88.3986 562.148 87.7405 561.172 87.2863L557.13 85.4051C556.058 84.9066 554.973 84.6571 553.862 84.6395L549.553 84.5696C548.069 84.5461 546.603 84.4779 545.156 84.3596L543.06 84.1889L540.965 84.014ZM575.062 78.0861C575.471 78.7497 575.814 79.4082 576.09 80.0635L576.134 78.3136C576.111 78.3092 576.087 78.3099 576.064 78.3049L575.241 78.1255L575.062 78.0861Z" fill="#FCFCFC"/>
<path d="M37.5138 0.00919453L41.9411 0.184186C43.4563 0.244508 44.9454 0.345169 46.4078 0.486047L50.6688 0.897277C51.9263 1.01827 53.1942 1.00119 54.4749 0.849155L56.6317 0.595417L58.7885 0.337304C60.4094 0.144893 62.0339 0.154733 63.6576 0.363553L65.8231 0.643539L67.9843 0.919151C69.6416 1.13239 71.2392 1.57911 72.7659 2.25784L76.7514 4.034C78.323 4.73286 79.735 5.68733 80.973 6.89074L84.1229 9.9531C85.1456 10.9474 85.9973 12.0174 86.5115 13.1686C87.1123 13.621 87.6625 14.0594 88.1608 14.481L87.4302 15.7322L87.649 16.3534C88.2223 17.9956 87.876 19.7306 87.194 21.3057L86.3322 23.2918L85.4747 25.278C84.8066 26.8208 83.9081 28.234 82.7886 29.504L79.8881 32.7895C79.2328 33.5329 78.3691 34.2244 77.2632 34.4826C76.0773 34.7592 74.9673 34.4592 74.0609 33.8657L71.121 31.9408C70.1503 31.3053 69.0483 30.5931 67.8137 29.8059L64.0907 27.4304C63.144 26.8268 62.1194 26.4685 60.9934 26.3498L56.5792 25.8861C55.2471 25.746 53.9398 25.7333 52.655 25.8423L50.507 26.0217L48.359 26.2055C46.8812 26.331 45.3782 26.4134 43.8529 26.4504L39.4081 26.5554C38.4691 26.5785 37.6996 26.8913 37.0064 27.5266L33.7296 30.5321C32.8251 31.3613 32.118 32.2847 31.5947 33.3057L30.6192 35.2044L29.648 37.1074C29.1561 38.0672 28.8985 39.0854 28.878 40.1873L28.7993 44.5096C28.7802 45.558 29.0196 46.4983 29.5123 47.3751L30.5492 49.2256L31.5904 51.0718C32.2353 52.2186 32.9548 53.3222 33.7471 54.3835L35.0202 56.094L36.2977 57.8002C37.0306 58.7818 37.8856 59.6634 38.8657 60.4426L40.5587 61.7856L42.2517 63.1331C43.1448 63.8429 44.1528 64.36 45.2922 64.6861L49.5401 65.9023C51.2311 66.3863 52.7718 67.1721 54.1468 68.2516L55.8661 69.599L57.581 70.9508C58.6284 71.7733 59.7279 72.4924 60.8752 73.1163L64.6507 75.1725C65.879 75.8405 67.1314 76.4845 68.4043 77.1018L70.3598 78.0511L72.3153 78.9961C73.8939 79.7616 75.2699 80.8165 76.4232 82.1459L77.8538 83.7996L79.2887 85.4533C80.1285 86.4214 81.073 87.2797 82.1192 88.0256L85.6891 90.5718C87.1358 91.6037 88.3123 92.8932 89.202 94.426L91.3894 98.197C92.1382 99.4877 92.8587 100.806 93.5462 102.147L95.5542 106.072C96.4347 107.79 96.7467 109.642 96.4904 111.562L96.1973 113.776L95.8998 115.989C95.7243 117.302 95.6979 118.583 95.8167 119.83L96.0223 121.965L96.2236 124.1C96.3904 125.852 96.1734 127.57 95.5761 129.223L94.1237 133.243C93.6955 134.428 93.3869 135.692 93.2006 137.036L92.5794 141.512C92.3109 143.446 91.5099 145.161 90.1907 146.587L88.6902 148.21L87.1852 149.833C86.0814 151.026 84.8774 152.089 83.5717 153.018L81.8042 154.273L80.0368 155.533C78.7859 156.422 77.4947 157.228 76.1651 157.948L72.4159 159.973C71.135 160.667 69.8298 161.338 68.4961 161.977L66.5406 162.909L64.5894 163.845C62.9782 164.617 61.2631 164.997 59.4709 164.983L55.1049 164.948C53.7539 164.937 52.4288 165.02 51.1282 165.193L46.9021 165.753C46.2134 165.844 45.7164 165.916 45.3928 165.976C44.9864 166.293 44.583 166.399 44.4916 166.422C44.3138 166.466 44.1533 166.485 44.0454 166.496C43.8232 166.519 43.584 166.527 43.3629 166.527C42.9077 166.526 42.3025 166.496 41.5737 166.448L37.2864 166.168C35.7639 166.068 34.2544 165.873 32.7584 165.582L30.6498 165.171L28.5455 164.764C27.006 164.465 25.5055 164.024 24.0482 163.447L22.0577 162.66L20.0628 161.868C18.7106 161.332 17.375 160.774 16.0555 160.197L14.1131 159.348L12.1663 158.495C10.8532 157.92 9.54871 157.33 8.25523 156.723L6.34345 155.822L4.42729 154.925C2.76726 154.145 1.34105 152.856 0.997453 150.878L0.953705 150.629C0.616082 150.33 0.298722 150.031 0 149.732L0.608096 148.638L0.476852 147.877C0.183292 146.187 0.678121 144.526 1.5443 143.012L2.61613 141.149L3.68358 139.281C4.4339 137.97 5.2528 136.696 6.13783 135.462L8.65771 131.944C9.16941 131.231 9.87551 130.457 10.8364 130.059C10.8927 130.035 10.9505 130.018 11.007 129.997L11.3963 129.306C11.5926 129.467 11.8078 129.627 12.0307 129.801C12.6423 129.782 13.2371 129.934 13.7718 130.234L14.1393 130.47L15.2243 131.257L16.3049 132.045C16.6538 132.299 17.3934 132.635 18.7416 132.92L20.9509 133.383L23.1645 133.852C24.937 134.226 26.5663 134.94 28.0293 135.991L31.6516 138.598C32.5905 139.273 33.6118 139.702 34.7315 139.902L39.0844 140.681C40.2214 140.884 41.3396 140.843 42.4574 140.558L46.7447 139.464C48.2981 139.068 49.8734 138.81 51.4651 138.69L53.6568 138.524L55.8486 138.362C56.748 138.294 57.4459 137.955 58.0491 137.303L59.5322 135.698L61.0196 134.092C61.9963 133.037 62.9532 131.977 63.8895 130.912L66.7375 127.67C67.3732 126.947 67.7581 126.095 67.8793 125.045L68.133 122.814L68.3911 120.587C68.506 119.588 68.3153 118.703 67.8093 117.857L65.5256 114.043C64.7376 112.726 63.9946 111.379 63.2989 110.009L62.2883 108.027L61.2821 106.041C60.8516 105.194 60.2302 104.618 59.3484 104.252L55.2274 102.537C53.7798 101.935 52.392 101.265 51.067 100.529L47.3221 98.4464C46.0507 97.7395 44.7879 97.0063 43.5336 96.2503L41.683 95.1391L39.8325 94.0235C38.7133 93.349 37.5434 92.7747 36.3195 92.3042L34.2984 91.5298L32.2772 90.7511C30.6583 90.1286 29.2047 89.2137 27.9287 88.0213L24.722 85.0245C23.6719 84.0433 22.6312 83.1065 21.6027 82.2115L20.0278 80.8379L18.4529 79.4685C17.4471 78.5934 16.3904 77.7409 15.2811 76.9137L13.5487 75.6231L11.8207 74.3325C10.5283 73.3686 9.3534 72.2611 8.29898 71.0121L5.45974 67.6479C4.23412 66.1958 3.48861 64.4995 3.2461 62.6125L2.96611 60.4163L2.68175 58.2246C2.4918 56.7444 2.32454 55.2912 2.17865 53.8673L1.96428 51.7586L1.74554 49.6543C1.60046 48.2382 1.46642 46.8116 1.34306 45.3758L0.975579 41.1016C0.826839 39.3696 1.03353 37.6706 1.59242 36.0269L2.28364 34.0013L2.97048 31.9802C3.41151 30.6831 3.80165 29.3707 4.14293 28.0516L5.21038 23.9349C5.62279 22.3411 6.27011 20.8276 7.14404 19.4026L8.28586 17.539L9.42768 15.6797C10.3432 14.1874 11.5163 12.9213 12.9363 11.8955L14.7081 10.6137L16.4798 9.33625C17.7578 8.41326 19.098 7.59873 20.4959 6.89949L24.3632 4.96583C25.659 4.3177 26.9703 3.67207 28.2962 3.0278L32.2553 1.10289C33.9082 0.300216 35.673 -0.0640431 37.5138 0.00919453Z" fill="#FCFCFC"/>
<path d="M284.182 58.4433C285.812 58.2654 287.439 58.2964 289.056 58.5395L291.191 58.8633L293.33 59.1826C294.729 59.3931 296.135 59.5792 297.547 59.7426L299.704 59.992L301.861 60.2457C303.746 60.464 305.433 61.2038 306.861 62.4506L310.116 65.2942C311.289 66.3185 312.351 67.4083 313.296 68.5622L314.587 70.1415L315.882 71.7164C316.767 72.7977 317.644 73.9245 318.511 75.0938L319.78 76.8087L321.049 78.5192C322.019 79.8281 322.805 81.2618 323.398 82.8065L324.181 84.8452L324.96 86.8838C325.599 88.5486 325.86 90.2863 325.743 92.0723L325.454 96.469C325.362 97.8575 325.342 99.2251 325.397 100.568L325.489 102.707L325.576 104.842C325.632 106.208 325.741 107.577 325.905 108.946L326.163 111.09L326.416 113.229C326.611 114.855 326.587 116.487 326.346 118.115L326.031 120.263L325.712 122.416C325.532 123.633 325.531 124.847 325.708 126.064L326.018 128.217L326.333 130.365C326.545 131.823 326.73 133.282 326.893 134.74L327.374 139.04C327.549 140.604 327.586 142.169 327.484 143.734L327.204 148.035C327.113 149.431 327.055 150.829 327.033 152.226L326.998 154.378L326.968 156.526C326.937 158.441 326.311 160.191 324.916 161.513L324.461 161.942V162.205H324.19L322.282 164.011C320.751 165.461 318.786 165.785 316.805 165.363L314.657 164.904L312.505 164.449C311.13 164.156 309.755 163.917 308.383 163.74L304.083 163.189C303.157 163.069 302.205 162.788 301.397 162.205H301.239V162.082C300.436 161.444 299.919 160.58 299.73 159.58L299.446 158.053L299.157 156.526C298.949 155.423 298.774 154.126 298.632 152.65L298.221 148.35C298.073 146.814 298.029 145.276 298.094 143.739L298.278 139.438C298.344 137.866 298.556 136.297 298.912 134.735L299.892 130.435C300.154 129.284 300.189 128.146 299.997 127.005L299.271 122.705C299.024 121.241 298.81 119.777 298.628 118.317L298.094 114.025C297.892 112.401 297.903 110.768 298.129 109.134L298.733 104.799C298.901 103.584 298.877 102.385 298.667 101.198L297.915 96.9371C297.67 95.551 297.392 94.1417 297.075 92.711L296.589 90.5149L296.099 88.3231C295.908 87.4596 295.469 86.8308 294.682 86.3413L292.744 85.1383L290.81 83.9352C289.834 83.3291 288.856 83.04 287.848 83.0121L285.7 82.9509L283.557 82.894C282.179 82.8562 280.778 82.8668 279.352 82.9246L277.139 83.0121L274.925 83.104C273.939 83.1442 273.102 83.4628 272.344 84.0883L270.638 85.497L268.932 86.9013C267.855 87.7896 266.848 88.7211 265.904 89.6881L262.899 92.7635C262.042 93.6412 261.321 94.6236 260.733 95.7078L258.673 99.5007C258.134 100.494 257.825 101.541 257.732 102.655L257.553 104.794L257.378 106.933C257.256 108.407 257.087 109.877 256.87 111.343L256.24 115.604C256.043 116.944 255.918 118.29 255.864 119.642L255.689 123.943C255.641 125.163 255.765 126.393 256.065 127.631L257.107 131.931C257.525 133.66 257.587 135.405 257.282 137.146L256.901 139.294L256.525 141.446C256.295 142.757 256.178 144.065 256.17 145.37L256.144 149.671C256.137 151.018 256.207 152.368 256.354 153.718L256.827 158.018C256.937 159.029 256.84 160.21 256.131 161.225C255.39 162.285 254.274 162.751 253.222 162.9L251.292 163.176L249.368 163.447C248.118 163.624 246.788 163.843 245.382 164.103L241.082 164.899C239.488 165.194 237.933 165.301 236.427 165.206L234.476 165.079L232.52 164.956C231.862 164.915 231.328 164.873 230.945 164.829C230.766 164.809 230.555 164.778 230.363 164.738C230.285 164.721 230.094 164.681 229.882 164.593C229.787 164.554 229.55 164.451 229.3 164.248C229.089 164.075 228.469 163.496 228.469 162.498V162.301C228.469 162.212 228.475 161.446 228.487 160.035L228.522 155.734C228.534 154.292 228.554 152.85 228.583 151.408L228.67 147.107C228.7 145.624 228.782 144.141 228.911 142.658L229.095 140.506L229.283 138.358C229.404 136.965 229.488 135.572 229.532 134.18L229.598 132.032L229.668 129.879C229.71 128.537 229.67 127.194 229.55 125.85L229.357 123.698L229.16 121.55C229.027 120.067 228.945 118.584 228.911 117.101L228.815 112.8C228.781 111.341 228.768 109.88 228.784 108.421L228.81 106.273L228.832 104.12C228.849 102.611 228.945 101.101 229.117 99.5926L229.607 95.2922C229.762 93.9224 229.858 92.5528 229.895 91.1842L230.009 86.8838C230.041 85.7014 229.883 84.5057 229.515 83.2921L228.859 81.1441L228.207 78.9917C227.653 77.1647 227.618 75.3056 228.106 73.4663L228.679 71.3183L229.248 69.1659C229.564 67.9762 230.008 66.7722 230.709 65.8498V63.5049H233.22C234.197 62.7666 235.529 62.3254 236.882 62.0219L239.034 61.5363L241.187 61.055C242.926 60.6654 244.68 60.6484 246.423 61.0025L248.571 61.44L250.724 61.8731C252.688 62.2725 254.4 63.3621 255.099 65.4123L256.21 68.6716C256.738 70.2261 256.744 71.9086 256.389 73.6282L256.078 75.1156C256.42 74.8135 256.822 74.3384 257.242 73.5888L258.31 71.6858L259.373 69.7828C260.35 68.0386 261.826 66.8034 263.712 66.1386L265.773 65.4123L267.834 64.6817C269.045 64.2547 270.184 63.6981 271.255 63.0106L273.083 61.8381L274.908 60.6657C276.417 59.6962 278.08 59.1105 279.864 58.9158L284.182 58.4433Z" fill="#FCFCFC"/>
<path fill-rule="evenodd" clip-rule="evenodd" d="M167.786 58.9551C169.485 58.6115 171.193 58.581 172.892 58.8676L175.027 59.2308L177.166 59.5895C178.792 59.8639 180.351 60.3537 181.838 61.055L185.745 62.8968C187.066 63.5198 188.382 64.162 189.691 64.8261L191.625 65.8104L193.558 66.7904C195.244 67.6456 196.573 68.9186 197.504 70.5658L198.581 72.4645L199.652 74.3632C200.387 75.6629 201.074 76.9539 201.709 78.2349L202.632 80.0985L203.55 81.9622C204.147 83.1667 204.792 84.3776 205.48 85.5933L207.597 89.3425C208.385 90.7365 209.018 92.2128 209.491 93.761L210.769 97.9433C211.296 99.669 211.414 101.441 211.123 103.228L210.414 107.581C210.188 108.97 210.021 110.344 209.92 111.698L209.763 113.828L209.601 115.959C209.49 117.435 209.018 118.918 207.899 119.97C207.869 120.285 207.849 120.603 207.816 120.92H206.543L205.821 121.344L204.557 122.092C203.104 122.95 201.38 123.058 199.674 122.805L197.522 122.486L195.374 122.171C194.156 121.991 192.939 121.99 191.721 122.167L187.42 122.788C185.964 122.999 184.507 123.189 183.05 123.352L178.745 123.833C177.182 124.008 175.616 124.045 174.051 123.943L169.751 123.663C168.354 123.572 166.956 123.514 165.56 123.492L161.259 123.422C159.942 123.401 158.624 123.484 157.304 123.667L155.152 123.965L153.004 124.266C151.31 124.502 149.614 124.437 147.929 124.078L143.629 123.16C142.665 122.954 142.141 123.131 141.791 123.383L140.33 124.433L139.079 125.329C139.103 125.377 139.122 125.439 139.158 125.5L140.282 127.412L141.402 129.328C142.08 130.483 142.835 131.516 143.659 132.439L145.051 134L146.446 135.562C147.241 136.451 148.129 137.204 149.11 137.828L150.847 138.935L152.584 140.038C153.652 140.718 154.813 141.352 156.071 141.936L160.091 143.804C161.034 144.242 161.986 144.378 163 144.224L165.179 143.896L167.358 143.564C168.766 143.351 170.146 143.102 171.496 142.811L173.592 142.356L175.687 141.906C177.193 141.581 178.725 141.372 180.276 141.271L184.603 140.991C185.789 140.914 186.922 140.64 188.007 140.169L191.975 138.445C192.876 138.054 194.133 137.741 195.383 138.292C196.687 138.867 197.268 140.057 197.518 141.039L198.012 142.995L198.511 144.95C198.785 146.032 199.232 147.113 199.867 148.188L200.969 150.051L202.072 151.919C202.585 152.789 202.962 153.846 202.833 154.999C202.697 156.212 202.043 157.16 201.21 157.834L199.766 159.002L198.327 160.17C196.992 161.25 195.383 161.865 193.606 162.1L191.45 162.388L189.289 162.673C188.001 162.843 186.758 163.141 185.557 163.565L183.531 164.278L181.506 164.996C179.954 165.543 178.354 165.86 176.711 165.949L172.419 166.186C170.974 166.264 169.791 166.307 168.884 166.313L167.603 166.321L166.321 166.326C166.174 166.327 166.044 166.333 165.932 166.334C165.896 166.35 165.868 166.369 165.844 166.378C165.601 166.475 165.391 166.509 165.332 166.518C165.179 166.542 165.041 166.546 164.972 166.549L164.965 166.549C164.805 166.554 164.615 166.554 164.427 166.549C164.034 166.538 163.47 166.511 162.751 166.47L160.607 166.343L158.459 166.221C156.934 166.133 155.421 165.948 153.923 165.665L149.71 164.869C148.144 164.573 146.632 164.112 145.177 163.482L143.222 162.638L141.271 161.789C139.873 161.184 138.533 160.489 137.255 159.702L133.698 157.51C132.468 156.753 131.258 155.949 130.071 155.096L128.356 153.858L126.637 152.624C125.331 151.685 124.165 150.587 123.146 149.334L121.807 147.68L120.464 146.031C119.461 144.796 118.612 143.459 117.918 142.024L116.986 140.103L116.059 138.183C115.357 136.729 114.852 135.208 114.545 133.624L114.143 131.529L113.736 129.437C113.458 128.002 113.224 126.569 113.032 125.141L112.472 120.985C112.305 119.747 112.011 118.483 111.583 117.192L110.175 112.949C109.548 111.055 109.583 109.132 110.28 107.266L111.054 105.188L111.833 103.11C112.319 101.81 112.706 100.525 113.001 99.2601L113.955 95.1697C114.265 93.8372 114.556 92.4677 114.825 91.0617L115.241 88.9093L115.652 86.757C116.014 84.8685 116.905 83.2291 118.29 81.8966L119.865 80.3785L121.44 78.8648C122.356 77.9835 123.155 76.9962 123.837 75.9031L126.178 72.1539C127.211 70.4997 128.66 69.2896 130.474 68.5753L132.526 67.7704L134.577 66.961C135.954 66.419 137.307 65.8971 138.633 65.3992L142.574 63.9205C143.794 63.4627 145.008 62.9117 146.214 62.2669L148.148 61.2344L150.082 60.1976C151.798 59.2798 153.659 58.9614 155.585 59.2526L157.759 59.5851L159.938 59.9132C161.132 60.0936 162.31 60.0636 163.486 59.8257L165.634 59.3926L167.786 58.9551ZM154.728 83.0515C155.692 82.6201 156.669 82.4819 157.707 82.6271L162.077 83.2396C163.538 83.4441 164.967 83.6387 166.36 83.8258L170.525 84.3858C171.623 84.5333 172.636 84.884 173.583 85.4358L175.39 86.4857L177.197 87.54C177.99 88.0026 178.509 88.6022 178.828 89.3774L180.368 93.1179C180.875 94.3484 181.386 95.6301 181.899 96.959L182.678 98.9714L183.453 100.988C183.504 101.121 183.522 101.22 183.533 101.286L183.536 101.299C183.527 101.305 183.52 101.318 183.509 101.325L181.895 102.349L180.281 103.368C179.706 103.732 178.99 103.912 178.002 103.784L173.701 103.224C172.094 103.014 170.484 102.996 168.876 103.167L164.571 103.622C163.325 103.754 162.079 103.731 160.83 103.552L158.678 103.241L156.526 102.935C154.93 102.705 153.33 102.651 151.731 102.777L149.583 102.948L147.43 103.114C146.119 103.218 144.809 103.216 143.498 103.106L140.26 102.83L140.448 102.331L141.065 100.691C141.457 99.6473 141.924 98.5234 142.465 97.3221L144.136 93.6079C144.638 92.4937 145.252 91.3926 145.987 90.3093L147.194 88.5331L148.397 86.757C148.959 85.9286 149.706 85.3014 150.685 84.8627L154.728 83.0515Z" fill="#FCFCFC"/>
<path d="M473.103 58.4695C474.798 58.2665 476.477 58.3508 478.125 58.732L480.212 59.2176L482.299 59.6989C483.322 59.9355 484.336 60.4197 485.081 61.3175C485.838 62.2296 486.12 63.3292 486.118 64.3974L486.109 68.4484C486.106 70.0787 485.8 71.6998 485.221 73.3001L484.473 75.3694L483.73 77.4386C483.243 78.7853 482.951 79.754 482.815 80.3873L482.561 81.5597L482.312 82.7365C482.148 83.5053 481.752 84.1143 481.253 84.5827L481.109 85.6545C480.883 85.5038 480.605 85.3763 480.287 85.252C479.548 85.632 478.714 85.833 477.894 85.9301L473.414 86.4638C472.079 86.622 470.83 86.9096 469.665 87.3257L467.665 88.0431L465.662 88.7562C464.286 89.2474 462.884 89.7004 461.457 90.1168L459.379 90.7249L457.301 91.3286C456.311 91.618 455.461 92.1418 454.725 92.9298L453.22 94.5441L451.71 96.1584C450.97 96.9505 450.486 97.8491 450.241 98.8883L449.742 101.023L449.239 103.158C448.908 104.561 448.595 105.97 448.302 107.38L447.856 109.523L447.414 111.667C447.171 112.843 447.135 114.011 447.305 115.184L447.926 119.485C448.138 120.942 448.328 122.402 448.491 123.86L448.972 128.16C449.146 129.723 449.183 131.289 449.081 132.854L448.801 137.155C448.71 138.551 448.653 139.949 448.631 141.346L448.561 145.646C448.54 146.963 448.622 148.281 448.806 149.601L449.103 151.753L449.405 153.906C449.663 155.766 449.365 157.585 448.211 159.085L446.119 161.807C446.101 161.83 446.077 161.849 446.058 161.872V162.205H445.765C444.465 163.583 442.676 163.974 440.861 163.74L436.561 163.189C435.368 163.035 434.177 163.072 432.978 163.307L430.825 163.727L428.677 164.151C427.268 164.427 426.021 164.611 425.164 164.567L424.35 164.523L423.532 164.484C421.986 164.403 421.224 163.231 420.938 162.445C420.667 161.699 420.608 160.832 420.614 160.035L420.649 155.734C420.662 154.292 420.682 152.85 420.711 151.408L420.798 147.107C420.828 145.624 420.906 144.141 421.034 142.658L421.411 138.358C421.532 136.965 421.612 135.572 421.656 134.18L421.726 132.032L421.791 129.879C421.833 128.537 421.794 127.194 421.673 125.85L421.288 121.55C421.155 120.067 421.073 118.584 421.039 117.101L420.986 114.948L420.938 112.8C420.905 111.341 420.896 109.88 420.912 108.421L420.934 106.273L420.96 104.12C420.977 102.611 421.068 101.101 421.24 99.5926L421.73 95.2922C421.886 93.9224 421.982 92.5528 422.019 91.1842L422.08 89.0318L422.137 86.8838C422.169 85.7014 422.006 84.5057 421.638 83.2921L420.334 78.9917C419.781 77.1646 419.746 75.3058 420.234 73.4663L420.803 71.3183L421.376 69.1659C421.691 67.9769 422.132 66.7723 422.832 65.8498V63.5049H425.348C426.325 62.7667 427.657 62.3253 429.01 62.0219L431.162 61.5363L433.31 61.055C435.05 60.6649 436.803 60.6483 438.547 61.0025L440.699 61.44L442.847 61.8731C444.743 62.2583 446.454 63.2491 447.257 65.163L447.896 66.6898L448.534 68.2122C449.189 69.7734 449.203 71.4944 448.823 73.2301L448.591 74.2713L448.67 74.0701L449.431 72.0227C450.135 70.1337 451.424 68.686 453.22 67.7704L457.109 65.7886C458.279 65.1922 459.374 64.4954 460.394 63.6974L462.096 62.3675L463.798 61.0332C465.257 59.8925 466.933 59.207 468.776 58.9858L473.103 58.4695Z" fill="#FCFCFC"/>
<path d="M380.161 16.5503C381.01 16.3535 382.564 16.1521 383.744 17.2415C384.971 18.3774 384.81 19.9797 384.627 20.8376L383.709 25.138C383.428 26.4544 383.255 27.7666 383.192 29.0753L383.092 31.2277L382.987 33.3757C382.927 34.628 383.019 35.8854 383.262 37.1468L383.674 39.2948L384.089 41.4472C384.374 42.9237 384.617 44.4011 384.811 45.8789L385.091 48.0313L385.375 50.1793C385.597 51.8675 385.529 53.5585 385.174 55.2366L384.264 59.537C384.222 59.7395 384.218 59.8683 384.221 59.9395C384.237 59.9486 384.256 59.9626 384.282 59.9745L387.747 61.5581C388.494 61.899 389.384 62.0489 390.476 61.9388L392.629 61.72L394.777 61.5056C396.322 61.3498 397.75 61.3298 399.042 61.4706L402.337 61.8294C403.403 61.9456 404.391 62.4158 405.123 63.2862C405.809 64.102 406.13 65.1026 406.269 66.0642L406.584 68.2122L406.895 70.3646C407.107 71.822 407.297 73.2817 407.459 74.7394L407.7 76.8874L407.936 79.0398C408.055 80.1061 407.918 81.3147 407.14 82.3384C406.36 83.3632 405.23 83.8189 404.17 83.9877L402.035 84.3289L399.9 84.6658C398.351 84.9122 396.794 85.0272 395.232 85.0027L390.927 84.9327C389.623 84.9122 388.77 85.0441 388.258 85.2214L386.968 85.672L385.743 86.0964L385.725 86.1226C385.645 86.2426 385.504 86.5223 385.389 87.0632L384.934 89.2156L384.474 91.3636C384.181 92.7379 383.947 94.1129 383.77 95.4847L383.49 97.6371L383.214 99.7851C383.061 100.977 383.102 102.169 383.337 103.368L384.177 107.668C384.471 109.172 384.692 110.681 384.837 112.188L385.249 116.488C385.396 118.024 385.441 119.562 385.375 121.099L385.192 125.399C385.125 126.971 384.913 128.54 384.557 130.102L383.577 134.403C383.315 135.554 383.285 136.692 383.477 137.833L383.836 139.985L384.199 142.133C384.446 143.602 384.658 145.074 384.833 146.543L385.091 148.691L385.345 150.843C385.544 152.512 385.48 154.183 385.152 155.844L384.728 157.992L384.299 160.144C384.099 161.156 383.668 162.193 382.812 162.975C381.923 163.785 380.827 164.097 379.749 164.095L375.895 164.086C374.506 164.082 373.053 163.978 371.538 163.78L369.386 163.5L367.238 163.215C365.963 163.049 364.928 163.063 364.105 163.202L362.456 163.478L360.811 163.758C360.273 163.849 359.912 163.92 359.7 163.968L359.665 163.976C359.581 163.995 359.579 163.995 359.621 163.981C359.648 163.972 359.777 163.929 359.932 163.841C360.011 163.796 360.206 163.677 360.409 163.469C360.474 163.401 360.566 163.283 360.667 163.128C359.528 164.046 357.24 163.702 356.659 162.791C356.615 162.631 356.575 162.409 356.567 162.349C356.559 162.272 356.554 162.205 356.554 162.205V161.995C356.555 161.918 356.557 161.793 356.559 161.623L356.572 160.035L356.607 155.734C356.619 154.292 356.643 152.85 356.672 151.408L356.712 149.26L356.756 147.107C356.785 145.624 356.867 144.141 356.996 142.658L357.184 140.506L357.368 138.358C357.489 136.965 357.574 135.572 357.617 134.18L357.683 132.032L357.753 129.879C357.795 128.537 357.756 127.194 357.635 125.85L357.25 121.55C357.117 120.067 357.03 118.584 356.996 117.101L356.9 112.8C356.866 111.341 356.858 109.88 356.874 108.421L356.917 104.12C356.934 102.611 357.03 101.101 357.202 99.5926L357.692 95.2922C357.848 93.9224 357.944 92.5528 357.98 91.1842L358.094 86.8838C358.097 86.7904 358.082 86.7189 358.077 86.6651L358.051 86.6607L356.095 86.3238L354.135 85.9826C352.758 85.744 351.324 85.4242 349.835 85.0289L347.682 84.4602L345.534 83.8871C344.552 83.6264 343.453 83.1921 342.616 82.4303H341.378V80.3304L341.107 79.4117L340.761 78.2261C340.508 77.3654 340.216 76.1982 339.891 74.7481L338.928 70.4477C338.515 68.6031 338.687 66.3995 340.665 65.1061L341.378 64.638V63.5049H343.115L343.189 63.4568C344.322 62.7165 345.728 62.1926 347.306 61.8163L349.458 61.3044L351.606 60.7882C352.916 60.4759 353.864 60.1143 354.511 59.747L355.846 58.9901L357.184 58.2333C357.224 58.2108 357.273 58.1759 357.333 58.0583C357.405 57.9156 357.501 57.6306 357.534 57.1265L357.814 52.8261C357.892 51.6225 357.787 50.4115 357.495 49.1906L356.462 44.8902C356.035 43.1037 356.047 41.3011 356.497 39.5179L357.044 37.3699L357.587 35.2175C357.861 34.1312 357.867 33.0621 357.613 31.9802L356.607 27.6798C356.366 26.6546 356.338 25.5321 356.782 24.4643C357.237 23.3699 358.073 22.6036 359.035 22.1063L360.815 21.1832L362.596 20.2645C364.038 19.5191 365.608 19.0516 367.281 18.847L371.569 18.3221C372.915 18.1574 374.295 17.9098 375.707 17.5827L380.161 16.5503Z" fill="#FCFCFC"/>
</svg>
